<svg xmlns="http://www.w3.org/2000/svg" xmlns:xlink="http://www.w3.org/1999/xlink" width="500" zoomAndPan="magnify" viewBox="0 0 375 374.999991" height="500" preserveAspectRatio="xMidYMid meet" version="1.0"><defs><g/><clipPath id="b2cee55640"><path d="M 171.15625 208.652344 L 323.828125 208.652344 L 323.828125 292.554688 L 171.15625 292.554688 Z M 171.15625 208.652344 " clip-rule="nonzero"/></clipPath><clipPath id="0fa0ef8e95"><path d="M 18.789062 208.652344 L 171.445312 208.652344 L 171.445312 292.554688 L 18.789062 292.554688 Z M 18.789062 208.652344 " clip-rule="nonzero"/></clipPath><clipPath id="6ed5606dcf"><path d="M 126 109.609375 L 216 109.609375 L 216 199 L 126 199 Z M 126 109.609375 " clip-rule="nonzero"/></clipPath><clipPath id="7a048f07e9"><path d="M 38 93 L 155 93 L 155 249 L 38 249 Z M 38 93 " clip-rule="nonzero"/></clipPath><clipPath id="e3f01d0d0a"><path d="M 174.242188 -42.339844 L 329.628906 113.046875 L 174.242188 268.433594 L 18.855469 113.046875 Z M 174.242188 -42.339844 " clip-rule="nonzero"/></clipPath><clipPath id="d2ea41c96d"><path d="M 174.242188 -42.339844 L 329.628906 113.046875 L 174.242188 268.433594 L 18.855469 113.046875 Z M 174.242188 -42.339844 " clip-rule="nonzero"/></clipPath><clipPath id="2675972f78"><path d="M 174.242188 -42.339844 L 329.628906 113.046875 L 174.242188 268.433594 L 18.855469 113.046875 Z M 174.242188 -42.339844 " clip-rule="nonzero"/></clipPath><clipPath id="2f5f7a8b35"><path d="M 30 85 L 86 85 L 86 141 L 30 141 Z M 30 85 " clip-rule="nonzero"/></clipPath><clipPath id="e4df1cf37b"><path d="M 174.242188 -42.339844 L 329.628906 113.046875 L 174.242188 268.433594 L 18.855469 113.046875 Z M 174.242188 -42.339844 " clip-rule="nonzero"/></clipPath><clipPath id="c6e43655d4"><path d="M 174.242188 -42.339844 L 329.628906 113.046875 L 174.242188 268.433594 L 18.855469 113.046875 Z M 174.242188 -42.339844 " clip-rule="nonzero"/></clipPath><clipPath id="0db5df5189"><path d="M 174.242188 -42.339844 L 329.628906 113.046875 L 174.242188 268.433594 L 18.855469 113.046875 Z M 174.242188 -42.339844 " clip-rule="nonzero"/></clipPath><clipPath id="92513a2172"><path d="M 109 62 L 178 62 L 178 236 L 109 236 Z M 109 62 " clip-rule="nonzero"/></clipPath><clipPath id="30030a1cf5"><path d="M 174.242188 -42.339844 L 329.628906 113.046875 L 174.242188 268.433594 L 18.855469 113.046875 Z M 174.242188 -42.339844 " clip-rule="nonzero"/></clipPath><clipPath id="d397aecc1c"><path d="M 174.242188 -42.339844 L 329.628906 113.046875 L 174.242188 268.433594 L 18.855469 113.046875 Z M 174.242188 -42.339844 " clip-rule="nonzero"/></clipPath><clipPath id="8c2975ef02"><path d="M 174.242188 -42.339844 L 329.628906 113.046875 L 174.242188 268.433594 L 18.855469 113.046875 Z M 174.242188 -42.339844 " clip-rule="nonzero"/></clipPath><clipPath id="557fc46167"><path d="M 109 41 L 165 41 L 165 97 L 109 97 Z M 109 41 " clip-rule="nonzero"/></clipPath><clipPath id="b37303ff39"><path d="M 174.242188 -42.339844 L 329.628906 113.046875 L 174.242188 268.433594 L 18.855469 113.046875 Z M 174.242188 -42.339844 " clip-rule="nonzero"/></clipPath><clipPath id="78ffd1e223"><path d="M 174.242188 -42.339844 L 329.628906 113.046875 L 174.242188 268.433594 L 18.855469 113.046875 Z M 174.242188 -42.339844 " clip-rule="nonzero"/></clipPath><clipPath id="cd3055f7d4"><path d="M 174.242188 -42.339844 L 329.628906 113.046875 L 174.242188 268.433594 L 18.855469 113.046875 Z M 174.242188 -42.339844 " clip-rule="nonzero"/></clipPath><clipPath id="ba8557991a"><path d="M 147 63 L 248 63 L 248 222 L 147 222 Z M 147 63 " clip-rule="nonzero"/></clipPath><clipPath id="67ecaedce1"><path d="M 174.242188 -42.339844 L 329.628906 113.046875 L 174.242188 268.433594 L 18.855469 113.046875 Z M 174.242188 -42.339844 " clip-rule="nonzero"/></clipPath><clipPath id="5dbb978ba0"><path d="M 174.242188 -42.339844 L 329.628906 113.046875 L 174.242188 268.433594 L 18.855469 113.046875 Z M 174.242188 -42.339844 " clip-rule="nonzero"/></clipPath><clipPath id="5ad54dcdd8"><path d="M 174.242188 -42.339844 L 329.628906 113.046875 L 174.242188 268.433594 L 18.855469 113.046875 Z M 174.242188 -42.339844 " clip-rule="nonzero"/></clipPath><clipPath id="fea115ae35"><path d="M 193 43 L 249 43 L 249 99 L 193 99 Z M 193 43 " clip-rule="nonzero"/></clipPath><clipPath id="9101fdeeb6"><path d="M 174.242188 -42.339844 L 329.628906 113.046875 L 174.242188 268.433594 L 18.855469 113.046875 Z M 174.242188 -42.339844 " clip-rule="nonzero"/></clipPath><clipPath id="4631d11014"><path d="M 174.242188 -42.339844 L 329.628906 113.046875 L 174.242188 268.433594 L 18.855469 113.046875 Z M 174.242188 -42.339844 " clip-rule="nonzero"/></clipPath><clipPath id="73f94f0691"><path d="M 174.242188 -42.339844 L 329.628906 113.046875 L 174.242188 268.433594 L 18.855469 113.046875 Z M 174.242188 -42.339844 " clip-rule="nonzero"/></clipPath><clipPath id="842fa85eac"><path d="M 154 93 L 311 93 L 311 250 L 154 250 Z M 154 93 " clip-rule="nonzero"/></clipPath><clipPath id="7a40b4dd63"><path d="M 174.242188 -42.339844 L 329.628906 113.046875 L 174.242188 268.433594 L 18.855469 113.046875 Z M 174.242188 -42.339844 " clip-rule="nonzero"/></clipPath><clipPath id="2b9e64eee9"><path d="M 174.242188 -42.339844 L 329.628906 113.046875 L 174.242188 268.433594 L 18.855469 113.046875 Z M 174.242188 -42.339844 " clip-rule="nonzero"/></clipPath><clipPath id="89783a6e68"><path d="M 174.242188 -42.339844 L 329.628906 113.046875 L 174.242188 268.433594 L 18.855469 113.046875 Z M 174.242188 -42.339844 " clip-rule="nonzero"/></clipPath><clipPath id="4ac11a0145"><path d="M 263 85 L 319 85 L 319 141 L 263 141 Z M 263 85 " clip-rule="nonzero"/></clipPath><clipPath id="0afb69bcbb"><path d="M 174.242188 -42.339844 L 329.628906 113.046875 L 174.242188 268.433594 L 18.855469 113.046875 Z M 174.242188 -42.339844 " clip-rule="nonzero"/></clipPath><clipPath id="a765078073"><path d="M 174.242188 -42.339844 L 329.628906 113.046875 L 174.242188 268.433594 L 18.855469 113.046875 Z M 174.242188 -42.339844 " clip-rule="nonzero"/></clipPath><clipPath id="329ab56f9d"><path d="M 174.242188 -42.339844 L 329.628906 113.046875 L 174.242188 268.433594 L 18.855469 113.046875 Z M 174.242188 -42.339844 " clip-rule="nonzero"/></clipPath><clipPath id="71d7cd980f"><path d="M 146 202 L 202 202 L 202 258 L 146 258 Z M 146 202 " clip-rule="nonzero"/></clipPath><clipPath id="8838d5c4a6"><path d="M 174.242188 -42.339844 L 329.628906 113.046875 L 174.242188 268.433594 L 18.855469 113.046875 Z M 174.242188 -42.339844 " clip-rule="nonzero"/></clipPath><clipPath id="07c398e952"><path d="M 174.242188 -42.339844 L 329.628906 113.046875 L 174.242188 268.433594 L 18.855469 113.046875 Z M 174.242188 -42.339844 " clip-rule="nonzero"/></clipPath><clipPath id="ec7074c446"><path d="M 174.242188 -42.339844 L 329.628906 113.046875 L 174.242188 268.433594 L 18.855469 113.046875 Z M 174.242188 -42.339844 " clip-rule="nonzero"/></clipPath></defs><path fill="#7ed957" d="M 297.792969 181.785156 L 282.972656 220.679688 C 213.859375 221.789062 176.816406 251.789062 171.308594 257.414062 L 171.308594 248.644531 C 177.691406 239.910156 222.976562 181.785156 297.792969 181.785156 " fill-opacity="1" fill-rule="nonzero"/><path fill="#f8b31a" d="M 312.3125 198.019531 L 296.171875 236.914062 C 218.597656 236.914062 177.753906 269.507812 171.308594 275.109375 L 171.308594 265.210938 C 183.25 255.53125 224.125 229.839844 292.996094 229.839844 L 306.15625 198.128906 C 308.1875 198.058594 310.238281 198.019531 312.3125 198.019531 " fill-opacity="1" fill-rule="nonzero"/><g clip-path="url(#b2cee55640)"><path fill="#95c3e1" d="M 323.828125 208.914062 L 306.378906 250.96875 C 221.050781 250.96875 177.0625 287.4375 171.308594 292.554688 L 171.308594 282.703125 C 183.777344 272.449219 227.828125 244.1875 302.945312 244.1875 L 317.539062 209.027344 C 319.613281 208.953125 321.710938 208.914062 323.828125 208.914062 " fill-opacity="1" fill-rule="nonzero"/></g><path fill="#7ed957" d="M 44.824219 181.785156 L 59.644531 220.679688 C 128.757812 221.789062 165.800781 251.789062 171.308594 257.414062 L 171.308594 248.644531 C 164.925781 239.910156 119.640625 181.785156 44.824219 181.785156 " fill-opacity="1" fill-rule="nonzero"/><path fill="#f8b31a" d="M 30.304688 198.019531 L 46.445312 236.914062 C 124.019531 236.914062 164.863281 269.507812 171.308594 275.109375 L 171.308594 265.210938 C 159.371094 255.53125 118.492188 229.839844 49.621094 229.839844 L 36.460938 198.128906 C 34.429688 198.058594 32.378906 198.019531 30.304688 198.019531 " fill-opacity="1" fill-rule="nonzero"/><g clip-path="url(#0fa0ef8e95)"><path fill="#95c3e1" d="M 18.789062 208.914062 L 36.238281 250.96875 C 121.566406 250.96875 165.558594 287.4375 171.308594 292.554688 L 171.308594 282.703125 C 158.839844 272.449219 114.789062 244.1875 39.671875 244.1875 L 25.078125 209.027344 C 23.003906 208.953125 20.90625 208.914062 18.789062 208.914062 " fill-opacity="1" fill-rule="nonzero"/></g><path fill="#95c3e1" d="M 172.96875 236.566406 C 172.96875 236.566406 185.558594 201.050781 258.472656 173.957031 C 258.472656 173.957031 185.558594 194.132812 217.835938 119.777344 C 217.835938 119.777344 172.96875 163.582031 172.96875 236.566406 " fill-opacity="1" fill-rule="nonzero"/><path fill="#95c3e1" d="M 236.269531 147.960938 C 241 153.960938 239.554688 162.984375 233.042969 168.109375 C 226.53125 173.238281 217.421875 172.527344 212.695312 166.523438 C 207.96875 160.523438 209.414062 151.5 215.925781 146.375 C 222.433594 141.246094 231.542969 141.957031 236.269531 147.960938 " fill-opacity="1" fill-rule="nonzero"/><path fill="#f8b31a" d="M 169.648438 236.566406 C 169.648438 236.566406 157.058594 201.050781 84.144531 173.957031 C 84.144531 173.957031 157.058594 194.132812 124.78125 119.777344 C 124.78125 119.777344 169.648438 163.582031 169.648438 236.566406 " fill-opacity="1" fill-rule="nonzero"/><path fill="#f8b31a" d="M 106.347656 147.960938 C 101.621094 153.960938 103.066406 162.984375 109.574219 168.109375 C 116.085938 173.238281 125.195312 172.527344 129.921875 166.523438 C 134.648438 160.523438 133.203125 151.5 126.695312 146.375 C 120.183594 141.246094 111.074219 141.957031 106.347656 147.960938 " fill-opacity="1" fill-rule="nonzero"/><g clip-path="url(#6ed5606dcf)"><path fill="#7ed957" d="M 158.613281 132.121094 C 150.707031 123.171875 139.636719 113.332031 126.925781 109.6875 C 126.925781 109.6875 164.152344 140.648438 171.308594 198.019531 C 178.464844 140.648438 215.691406 109.6875 215.691406 109.6875 C 202.980469 113.332031 191.910156 123.171875 184.003906 132.121094 C 177.273438 139.742188 165.34375 139.742188 158.613281 132.121094 " fill-opacity="1" fill-rule="nonzero"/></g><path fill="#7ed957" d="M 183.21875 125.347656 C 183.21875 118.082031 177.886719 112.191406 171.308594 112.191406 C 164.730469 112.191406 159.398438 118.082031 159.398438 125.347656 C 159.398438 132.617188 164.730469 138.507812 171.308594 138.507812 C 177.886719 138.507812 183.21875 132.617188 183.21875 125.347656 " fill-opacity="1" fill-rule="nonzero"/><g clip-path="url(#7a048f07e9)"><g clip-path="url(#e3f01d0d0a)"><g clip-path="url(#d2ea41c96d)"><g clip-path="url(#2675972f78)"><path fill="#d40551" d="M 125.570312 142.070312 L 77.128906 93.625 L 38.28125 132.472656 L 154.765625 248.957031 Z M 125.570312 142.070312 " fill-opacity="1" fill-rule="nonzero"/></g></g></g></g><g clip-path="url(#2f5f7a8b35)"><g clip-path="url(#e4df1cf37b)"><g clip-path="url(#c6e43655d4)"><g clip-path="url(#0db5df5189)"><path fill="#fd3f2e" d="M 77.128906 132.472656 C 76.492188 133.109375 75.824219 133.710938 75.128906 134.28125 C 74.433594 134.851562 73.710938 135.386719 72.964844 135.886719 C 72.214844 136.386719 71.445312 136.851562 70.652344 137.273438 C 69.859375 137.699219 69.046875 138.082031 68.214844 138.425781 C 67.382812 138.769531 66.539062 139.074219 65.675781 139.335938 C 64.816406 139.59375 63.945312 139.8125 63.0625 139.988281 C 62.179688 140.164062 61.292969 140.296875 60.394531 140.386719 C 59.5 140.472656 58.601562 140.515625 57.703125 140.515625 C 56.804688 140.515625 55.90625 140.472656 55.011719 140.386719 C 54.117188 140.296875 53.226562 140.164062 52.34375 139.988281 C 51.460938 139.8125 50.589844 139.59375 49.730469 139.335938 C 48.867188 139.074219 48.023438 138.769531 47.191406 138.425781 C 46.359375 138.082031 45.546875 137.699219 44.753906 137.273438 C 43.960938 136.851562 43.191406 136.386719 42.441406 135.886719 C 41.695312 135.386719 40.972656 134.851562 40.277344 134.28125 C 39.582031 133.710938 38.917969 133.109375 38.28125 132.472656 C 37.644531 131.835938 37.039062 131.167969 36.46875 130.472656 C 35.898438 129.777344 35.363281 129.058594 34.863281 128.308594 C 34.363281 127.5625 33.902344 126.789062 33.476562 125.996094 C 33.054688 125.203125 32.671875 124.390625 32.324219 123.558594 C 31.980469 122.730469 31.679688 121.882812 31.417969 121.023438 C 31.15625 120.160156 30.9375 119.289062 30.761719 118.40625 C 30.585938 117.523438 30.457031 116.636719 30.367188 115.742188 C 30.277344 114.84375 30.234375 113.949219 30.234375 113.046875 C 30.234375 112.148438 30.277344 111.25 30.367188 110.355469 C 30.457031 109.460938 30.585938 108.570312 30.761719 107.691406 C 30.9375 106.808594 31.15625 105.9375 31.417969 105.074219 C 31.679688 104.214844 31.980469 103.367188 32.324219 102.535156 C 32.671875 101.707031 33.054688 100.894531 33.476562 100.101562 C 33.902344 99.304688 34.363281 98.535156 34.863281 97.789062 C 35.363281 97.039062 35.898438 96.316406 36.46875 95.621094 C 37.039062 94.925781 37.644531 94.261719 38.28125 93.625 C 38.917969 92.988281 39.582031 92.386719 40.277344 91.816406 C 40.972656 91.242188 41.695312 90.707031 42.441406 90.210938 C 43.191406 89.710938 43.960938 89.246094 44.753906 88.824219 C 45.546875 88.398438 46.359375 88.015625 47.191406 87.671875 C 48.023438 87.328125 48.867188 87.023438 49.730469 86.761719 C 50.589844 86.5 51.460938 86.28125 52.34375 86.109375 C 53.226562 85.933594 54.117188 85.800781 55.011719 85.710938 C 55.90625 85.625 56.804688 85.578125 57.703125 85.578125 C 58.601562 85.578125 59.5 85.625 60.394531 85.710938 C 61.292969 85.800781 62.179688 85.933594 63.0625 86.109375 C 63.945312 86.28125 64.816406 86.5 65.675781 86.761719 C 66.539062 87.023438 67.382812 87.328125 68.214844 87.671875 C 69.046875 88.015625 69.859375 88.398438 70.652344 88.824219 C 71.445312 89.246094 72.214844 89.710938 72.964844 90.210938 C 73.710938 90.707031 74.433594 91.246094 75.128906 91.816406 C 75.824219 92.386719 76.492188 92.988281 77.128906 93.625 C 77.761719 94.261719 78.367188 94.925781 78.9375 95.621094 C 79.507812 96.316406 80.042969 97.039062 80.542969 97.789062 C 81.042969 98.535156 81.503906 99.304688 81.929688 100.101562 C 82.351562 100.894531 82.738281 101.707031 83.082031 102.535156 C 83.425781 103.367188 83.730469 104.214844 83.988281 105.074219 C 84.25 105.9375 84.46875 106.808594 84.644531 107.691406 C 84.820312 108.570312 84.953125 109.460938 85.039062 110.355469 C 85.128906 111.25 85.171875 112.148438 85.171875 113.046875 C 85.171875 113.949219 85.128906 114.84375 85.039062 115.742188 C 84.953125 116.636719 84.820312 117.523438 84.644531 118.40625 C 84.46875 119.289062 84.25 120.160156 83.988281 121.023438 C 83.730469 121.882812 83.425781 122.730469 83.082031 123.558594 C 82.738281 124.390625 82.351562 125.203125 81.929688 125.996094 C 81.503906 126.789062 81.042969 127.5625 80.542969 128.308594 C 80.042969 129.058594 79.507812 129.777344 78.9375 130.472656 C 78.367188 131.167969 77.761719 131.835938 77.128906 132.472656 Z M 77.128906 132.472656 " fill-opacity="1" fill-rule="nonzero"/></g></g></g></g><g clip-path="url(#92513a2172)"><g clip-path="url(#30030a1cf5)"><g clip-path="url(#d397aecc1c)"><g clip-path="url(#8c2975ef02)"><path fill="#08c07a" d="M 177.261719 121.839844 L 177.257812 121.835938 L 163.464844 62.84375 L 109.972656 75.355469 C 111.792969 83.132812 146.804688 232.863281 147.382812 235.347656 Z M 177.261719 121.839844 " fill-opacity="1" fill-rule="nonzero"/></g></g></g></g><g clip-path="url(#557fc46167)"><g clip-path="url(#b37303ff39)"><g clip-path="url(#78ffd1e223)"><g clip-path="url(#cd3055f7d4)"><path fill="#03e48c" d="M 163.464844 62.84375 C 166.917969 77.617188 157.742188 92.390625 142.972656 95.84375 C 128.199219 99.304688 113.421875 90.128906 109.972656 75.355469 C 106.511719 60.519531 115.742188 45.785156 130.464844 42.351562 C 145.234375 38.898438 160.007812 48.074219 163.464844 62.84375 Z M 163.464844 62.84375 " fill-opacity="1" fill-rule="nonzero"/></g></g></g></g><g clip-path="url(#ba8557991a)"><g clip-path="url(#67ecaedce1)"><g clip-path="url(#5dbb978ba0)"><g clip-path="url(#5ad54dcdd8)"><path fill="#0885f6" d="M 230.925781 134.058594 L 247.042969 79.1875 L 194.332031 63.707031 L 177.257812 121.835938 L 177.261719 121.839844 L 147.996094 221.46875 Z M 230.925781 134.058594 " fill-opacity="1" fill-rule="nonzero"/></g></g></g></g><g clip-path="url(#fea115ae35)"><g clip-path="url(#9101fdeeb6)"><g clip-path="url(#4631d11014)"><g clip-path="url(#73f94f0691)"><path fill="#68aef9" d="M 228.429688 45.09375 C 242.984375 49.367188 251.316406 64.632812 247.042969 79.1875 C 242.765625 93.746094 227.503906 102.082031 212.945312 97.804688 C 198.394531 93.527344 190.058594 78.265625 194.335938 63.707031 C 198.585938 49.214844 213.820312 40.792969 228.429688 45.09375 Z M 228.429688 45.09375 " fill-opacity="1" fill-rule="nonzero"/></g></g></g></g><g clip-path="url(#842fa85eac)"><g clip-path="url(#7a40b4dd63)"><g clip-path="url(#2b9e64eee9)"><g clip-path="url(#89783a6e68)"><path fill="#fdb900" d="M 271.359375 93.625 C 266.847656 98.136719 160.402344 204.585938 154.820312 210.164062 L 193.667969 249.011719 L 310.207031 132.472656 Z M 271.359375 93.625 " fill-opacity="1" fill-rule="nonzero"/></g></g></g></g><g clip-path="url(#4ac11a0145)"><g clip-path="url(#0afb69bcbb)"><g clip-path="url(#a765078073)"><g clip-path="url(#329ab56f9d)"><path fill="#fde44d" d="M 310.207031 132.472656 C 309.570312 133.109375 308.90625 133.710938 308.210938 134.28125 C 307.515625 134.851562 306.792969 135.386719 306.042969 135.886719 C 305.296875 136.386719 304.527344 136.851562 303.734375 137.273438 C 302.9375 137.699219 302.125 138.082031 301.296875 138.425781 C 300.464844 138.769531 299.617188 139.074219 298.757812 139.335938 C 297.898438 139.59375 297.023438 139.8125 296.144531 139.988281 C 295.261719 140.164062 294.371094 140.296875 293.476562 140.386719 C 292.582031 140.472656 291.683594 140.515625 290.785156 140.515625 C 289.882812 140.515625 288.988281 140.472656 288.089844 140.386719 C 287.195312 140.296875 286.308594 140.164062 285.425781 139.988281 C 284.542969 139.8125 283.671875 139.59375 282.808594 139.335938 C 281.949219 139.074219 281.101562 138.769531 280.273438 138.425781 C 279.441406 138.082031 278.628906 137.699219 277.835938 137.273438 C 277.042969 136.851562 276.269531 136.386719 275.523438 135.886719 C 274.773438 135.386719 274.054688 134.851562 273.359375 134.28125 C 272.664062 133.710938 271.996094 133.109375 271.359375 132.472656 C 270.722656 131.835938 270.121094 131.167969 269.550781 130.472656 C 268.980469 129.777344 268.445312 129.058594 267.945312 128.308594 C 267.445312 127.5625 266.984375 126.789062 266.558594 125.996094 C 266.132812 125.203125 265.75 124.390625 265.40625 123.558594 C 265.0625 122.730469 264.757812 121.882812 264.496094 121.023438 C 264.238281 120.160156 264.019531 119.289062 263.84375 118.40625 C 263.667969 117.523438 263.535156 116.636719 263.449219 115.742188 C 263.359375 114.84375 263.316406 113.949219 263.316406 113.046875 C 263.316406 112.148438 263.359375 111.25 263.449219 110.355469 C 263.535156 109.460938 263.667969 108.570312 263.84375 107.691406 C 264.019531 106.808594 264.238281 105.9375 264.496094 105.074219 C 264.757812 104.214844 265.0625 103.367188 265.40625 102.535156 C 265.75 101.707031 266.132812 100.894531 266.558594 100.101562 C 266.984375 99.304688 267.445312 98.535156 267.945312 97.789062 C 268.445312 97.039062 268.980469 96.316406 269.550781 95.621094 C 270.121094 94.925781 270.722656 94.261719 271.359375 93.625 C 271.996094 92.988281 272.664062 92.386719 273.359375 91.816406 C 274.054688 91.242188 274.773438 90.707031 275.523438 90.210938 C 276.269531 89.710938 277.042969 89.246094 277.835938 88.824219 C 278.628906 88.398438 279.441406 88.015625 280.273438 87.671875 C 281.101562 87.328125 281.949219 87.023438 282.808594 86.761719 C 283.671875 86.5 284.542969 86.28125 285.425781 86.109375 C 286.308594 85.933594 287.195312 85.800781 288.089844 85.710938 C 288.988281 85.625 289.882812 85.578125 290.785156 85.578125 C 291.683594 85.578125 292.582031 85.625 293.476562 85.710938 C 294.371094 85.800781 295.261719 85.933594 296.144531 86.109375 C 297.023438 86.28125 297.898438 86.5 298.757812 86.761719 C 299.617188 87.023438 300.464844 87.328125 301.296875 87.671875 C 302.125 88.015625 302.9375 88.398438 303.734375 88.824219 C 304.527344 89.246094 305.296875 89.710938 306.042969 90.210938 C 306.792969 90.707031 307.515625 91.242188 308.210938 91.816406 C 308.90625 92.386719 309.570312 92.988281 310.207031 93.625 C 310.84375 94.261719 311.445312 94.925781 312.015625 95.621094 C 312.589844 96.316406 313.125 97.039062 313.625 97.789062 C 314.121094 98.535156 314.585938 99.304688 315.007812 100.101562 C 315.433594 100.894531 315.816406 101.707031 316.160156 102.535156 C 316.507812 103.367188 316.808594 104.214844 317.070312 105.074219 C 317.332031 105.9375 317.550781 106.808594 317.726562 107.691406 C 317.898438 108.570312 318.03125 109.460938 318.121094 110.355469 C 318.207031 111.25 318.253906 112.148438 318.253906 113.046875 C 318.253906 113.949219 318.207031 114.84375 318.121094 115.742188 C 318.03125 116.636719 317.898438 117.523438 317.726562 118.40625 C 317.550781 119.289062 317.332031 120.160156 317.070312 121.023438 C 316.808594 121.882812 316.507812 122.730469 316.160156 123.558594 C 315.816406 124.390625 315.433594 125.203125 315.007812 125.996094 C 314.585938 126.789062 314.121094 127.5625 313.625 128.308594 C 313.125 129.058594 312.589844 129.777344 312.015625 130.472656 C 311.445312 131.171875 310.84375 131.835938 310.207031 132.472656 Z M 310.207031 132.472656 " fill-opacity="1" fill-rule="nonzero"/></g></g></g></g><g clip-path="url(#71d7cd980f)"><g clip-path="url(#8838d5c4a6)"><g clip-path="url(#07c398e952)"><g clip-path="url(#ec7074c446)"><path fill="#fde44d" d="M 154.820312 210.164062 C 165.546875 199.4375 182.9375 199.4375 193.667969 210.164062 C 204.394531 220.894531 204.394531 238.285156 193.667969 249.011719 C 183.046875 259.632812 165.679688 259.871094 154.765625 248.957031 C 144.039062 238.179688 144.164062 220.820312 154.820312 210.164062 Z M 154.820312 210.164062 " fill-opacity="1" fill-rule="nonzero"/></g></g></g></g><g fill="#6c89a4" fill-opacity="1"><g transform="translate(52.437248, 329.162581)"><g><path d="M 18.8125 -6.578125 L 18.78125 -6.578125 L 18.78125 -9.46875 C 18.734375 -10.625 18.859375 -11.78125 18.671875 -12.9375 C 18.59375 -13.421875 18.59375 -13.5 18.109375 -13.5 C 17.3125 -13.46875 16.53125 -13.421875 15.75 -13.421875 C 14.140625 -13.46875 12.53125 -13.3125 10.921875 -13.3125 C 10.625 -13.3125 10.46875 -13.234375 10.40625 -12.90625 C 10.328125 -12.6875 10.28125 -12.421875 10.28125 -12.15625 C 10.28125 -11.890625 10.328125 -11.640625 10.328125 -11.328125 C 10.328125 -10.65625 10.359375 -9.984375 10.359375 -9.28125 C 10.359375 -8.984375 10.46875 -8.859375 10.765625 -8.75 C 10.890625 -8.71875 11.03125 -8.71875 11.1875 -8.671875 L 13.65625 -8.5625 C 13.84375 -8.53125 13.875 -8.53125 13.875 -8.34375 C 13.921875 -7.59375 13.921875 -6.875 13.921875 -6.140625 C 13.921875 -5.90625 13.921875 -5.640625 13.6875 -5.5 C 13.171875 -5.234375 12.6875 -4.90625 12.15625 -4.671875 C 11.03125 -4.234375 9.875 -4.1875 8.75 -4.640625 C 8.453125 -4.75 8.1875 -4.90625 7.96875 -5.09375 C 7.515625 -5.46875 7.1875 -5.984375 6.921875 -6.515625 C 6.734375 -6.921875 6.546875 -7.375 6.46875 -7.859375 C 6.328125 -8.609375 6.140625 -9.34375 6.171875 -10.140625 C 6.171875 -10.8125 6.09375 -11.484375 6.171875 -12.15625 C 6.28125 -13.0625 6.4375 -13.984375 6.4375 -14.890625 C 6.390625 -15.40625 6.46875 -15.96875 6.578125 -16.453125 C 6.65625 -16.796875 6.765625 -17.125 6.84375 -17.4375 C 7.03125 -18.25 7.21875 -19.078125 7.703125 -19.78125 C 8.15625 -20.46875 8.671875 -21.09375 9.46875 -21.4375 C 10.171875 -21.765625 10.890625 -22.0625 11.703125 -22.03125 C 12.265625 -22 12.796875 -21.84375 13.3125 -21.625 C 13.546875 -21.515625 13.734375 -21.28125 13.796875 -21.015625 C 13.875 -20.640625 13.875 -20.234375 13.921875 -19.859375 C 13.984375 -19.34375 14.03125 -18.8125 14.109375 -18.296875 C 14.109375 -18.171875 14.171875 -18.03125 14.296875 -18 C 14.65625 -17.8125 15.03125 -17.6875 15.484375 -17.765625 C 15.671875 -17.765625 15.828125 -17.8125 16.015625 -17.8125 C 16.71875 -17.875 17.390625 -17.921875 18.0625 -17.953125 C 18.359375 -18 18.515625 -18.140625 18.546875 -18.4375 C 18.59375 -18.890625 18.625 -19.375 18.515625 -19.859375 L 18.515625 -20.046875 C 18.4375 -20.875 18.359375 -21.65625 18.296875 -22.484375 C 18.171875 -23.265625 17.953125 -24.015625 17.46875 -24.65625 C 17.171875 -25.0625 16.765625 -25.328125 16.34375 -25.515625 C 15.828125 -25.765625 15.375 -26.078125 14.84375 -26.265625 C 14.65625 -26.328125 14.46875 -26.484375 14.296875 -26.515625 C 13.953125 -26.640625 13.578125 -26.703125 13.203125 -26.78125 C 12.90625 -26.8125 12.609375 -26.8125 12.3125 -26.8125 C 12 -26.859375 11.703125 -26.8125 11.40625 -26.8125 C 11.1875 -26.8125 10.921875 -26.859375 10.65625 -26.8125 C 9.65625 -26.75 8.671875 -26.484375 7.75 -26.03125 C 7.140625 -25.734375 6.515625 -25.359375 5.90625 -25.03125 C 5.828125 -24.984375 5.796875 -24.90625 5.71875 -24.84375 C 5.09375 -24.3125 4.53125 -23.71875 4 -23.109375 L 3.78125 -22.78125 C 3.671875 -22.484375 3.546875 -22.21875 3.359375 -22 C 3.109375 -21.625 2.921875 -21.25 2.8125 -20.828125 C 2.6875 -20.46875 2.578125 -20.046875 2.46875 -19.671875 C 2.0625 -18.171875 1.765625 -16.6875 1.640625 -15.15625 C 1.578125 -13.5 1.53125 -11.859375 1.5 -10.21875 C 1.5 -9.53125 1.53125 -8.90625 1.609375 -8.265625 C 1.6875 -7.515625 1.796875 -6.765625 1.90625 -5.984375 C 1.9375 -5.796875 2.015625 -5.609375 2.09375 -5.421875 C 2.125 -5.203125 2.25 -4.96875 2.28125 -4.78125 C 2.46875 -4.109375 2.765625 -3.515625 3.21875 -2.953125 C 3.359375 -2.765625 3.546875 -2.578125 3.671875 -2.390625 C 4.265625 -1.578125 4.90625 -0.75 5.828125 -0.296875 C 6.25 -0.109375 6.578125 0.15625 7 0.21875 C 7.703125 0.40625 8.421875 0.5625 9.171875 0.5625 C 9.28125 0.59375 9.390625 0.59375 9.53125 0.640625 C 9.90625 0.640625 10.25 0.671875 10.625 0.640625 C 11.640625 0.484375 12.640625 0.15625 13.609375 -0.21875 C 13.84375 -0.34375 13.921875 -0.296875 13.921875 0 C 13.921875 0.34375 13.921875 0.34375 14.296875 0.34375 C 15.109375 0.296875 15.96875 0.296875 16.828125 0.265625 C 17.3125 0.21875 17.765625 0.21875 18.21875 0.21875 C 18.484375 0.1875 18.671875 0.03125 18.671875 -0.21875 C 18.703125 -0.53125 18.734375 -0.859375 18.734375 -1.15625 C 18.78125 -2.953125 18.78125 -4.75 18.8125 -6.578125 Z M 18.8125 -6.578125 "/></g></g></g><g fill="#6c89a4" fill-opacity="1"><g transform="translate(72.748729, 329.162581)"><g><path d="M 1.578125 -11.9375 L 1.578125 -11.484375 C 1.453125 -9.90625 1.53125 -8.34375 1.9375 -6.765625 C 2.09375 -6.28125 2.25 -5.765625 2.4375 -5.28125 C 2.65625 -4.71875 2.875 -4.15625 3.296875 -3.703125 C 3.296875 -3.703125 3.328125 -3.625 3.328125 -3.59375 C 3.625 -3.0625 4.046875 -2.625 4.484375 -2.203125 C 5.015625 -1.765625 5.53125 -1.3125 6.09375 -0.9375 C 6.46875 -0.640625 6.875 -0.40625 7.375 -0.296875 C 7.8125 -0.1875 8.265625 0 8.71875 0.078125 C 9.28125 0.1875 9.84375 0.265625 10.40625 0.34375 L 10.515625 0.34375 C 11.140625 0.265625 11.78125 0.21875 12.421875 0 C 12.828125 -0.109375 13.203125 -0.265625 13.578125 -0.453125 C 14.46875 -0.890625 15.15625 -1.578125 15.78125 -2.28125 C 16.125 -2.6875 16.421875 -3.0625 16.71875 -3.484375 C 17.125 -4.109375 17.578125 -4.671875 17.875 -5.390625 C 18.03125 -5.71875 18.21875 -6.09375 18.359375 -6.4375 C 18.859375 -7.59375 19.078125 -8.796875 19.265625 -9.984375 C 19.5625 -11.828125 19.75 -13.6875 19.71875 -15.53125 C 19.671875 -16.34375 19.59375 -17.171875 19.40625 -17.953125 C 19.078125 -19.375 18.671875 -20.71875 18.21875 -22.109375 C 17.875 -22.96875 17.46875 -23.828125 16.90625 -24.578125 C 16.578125 -25.0625 16.15625 -25.46875 15.640625 -25.8125 C 14.96875 -26.21875 14.296875 -26.59375 13.546875 -26.859375 C 12.90625 -27.078125 12.265625 -27.1875 11.59375 -27.234375 C 10.890625 -27.265625 10.171875 -27.1875 9.5 -27.078125 C 8.859375 -26.96875 8.265625 -26.859375 7.75 -26.515625 C 7.703125 -26.515625 7.703125 -26.484375 7.671875 -26.484375 C 7.1875 -26.375 6.765625 -26.03125 6.390625 -25.734375 C 5.953125 -25.40625 5.5 -25.03125 5.09375 -24.65625 C 4.265625 -23.9375 3.625 -23.078125 3.171875 -22.0625 C 3.109375 -21.84375 3.03125 -21.625 2.921875 -21.390625 C 2.578125 -20.6875 2.390625 -19.90625 2.25 -19.078125 C 2.09375 -18.140625 2.015625 -17.203125 1.875 -16.265625 C 1.796875 -15.59375 1.6875 -14.921875 1.640625 -14.25 C 1.578125 -13.5 1.578125 -12.71875 1.578125 -11.9375 Z M 13.84375 -13.875 C 13.84375 -12.5 13.734375 -11.109375 13.5 -9.71875 C 13.390625 -8.828125 13.09375 -7.96875 12.6875 -7.140625 C 12.421875 -6.578125 12 -6.09375 11.484375 -5.796875 C 10.953125 -5.46875 10.40625 -5.3125 9.765625 -5.53125 C 9.28125 -5.71875 8.796875 -5.953125 8.34375 -6.203125 C 7.8125 -6.546875 7.484375 -7 7.21875 -7.515625 C 6.875 -8.15625 6.765625 -8.828125 6.65625 -9.5 C 6.390625 -11.03125 6.28125 -12.609375 6.359375 -14.140625 C 6.46875 -15.78125 6.765625 -17.4375 7.59375 -18.890625 C 8.046875 -19.640625 8.5625 -20.3125 9.203125 -20.90625 C 9.46875 -21.203125 9.796875 -21.328125 10.21875 -21.328125 C 10.65625 -21.28125 11.109375 -21.25 11.515625 -21.09375 C 11.75 -21.015625 11.890625 -20.90625 12 -20.765625 C 12.421875 -20.34375 12.6875 -19.828125 12.90625 -19.296875 C 13.3125 -18.359375 13.546875 -17.390625 13.65625 -16.390625 C 13.734375 -15.5625 13.765625 -14.734375 13.84375 -13.875 Z M 13.84375 -13.875 "/></g></g></g><g fill="#6c89a4" fill-opacity="1"><g transform="translate(93.995362, 329.162581)"><g><path d="M 1.578125 -11.9375 L 1.578125 -11.484375 C 1.453125 -9.90625 1.53125 -8.34375 1.9375 -6.765625 C 2.09375 -6.28125 2.25 -5.765625 2.4375 -5.28125 C 2.65625 -4.71875 2.875 -4.15625 3.296875 -3.703125 C 3.296875 -3.703125 3.328125 -3.625 3.328125 -3.59375 C 3.625 -3.0625 4.046875 -2.625 4.484375 -2.203125 C 5.015625 -1.765625 5.53125 -1.3125 6.09375 -0.9375 C 6.46875 -0.640625 6.875 -0.40625 7.375 -0.296875 C 7.8125 -0.1875 8.265625 0 8.71875 0.078125 C 9.28125 0.1875 9.84375 0.265625 10.40625 0.34375 L 10.515625 0.34375 C 11.140625 0.265625 11.78125 0.21875 12.421875 0 C 12.828125 -0.109375 13.203125 -0.265625 13.578125 -0.453125 C 14.46875 -0.890625 15.15625 -1.578125 15.78125 -2.28125 C 16.125 -2.6875 16.421875 -3.0625 16.71875 -3.484375 C 17.125 -4.109375 17.578125 -4.671875 17.875 -5.390625 C 18.03125 -5.71875 18.21875 -6.09375 18.359375 -6.4375 C 18.859375 -7.59375 19.078125 -8.796875 19.265625 -9.984375 C 19.5625 -11.828125 19.75 -13.6875 19.71875 -15.53125 C 19.671875 -16.34375 19.59375 -17.171875 19.40625 -17.953125 C 19.078125 -19.375 18.671875 -20.71875 18.21875 -22.109375 C 17.875 -22.96875 17.46875 -23.828125 16.90625 -24.578125 C 16.578125 -25.0625 16.15625 -25.46875 15.640625 -25.8125 C 14.96875 -26.21875 14.296875 -26.59375 13.546875 -26.859375 C 12.90625 -27.078125 12.265625 -27.1875 11.59375 -27.234375 C 10.890625 -27.265625 10.171875 -27.1875 9.5 -27.078125 C 8.859375 -26.96875 8.265625 -26.859375 7.75 -26.515625 C 7.703125 -26.515625 7.703125 -26.484375 7.671875 -26.484375 C 7.1875 -26.375 6.765625 -26.03125 6.390625 -25.734375 C 5.953125 -25.40625 5.5 -25.03125 5.09375 -24.65625 C 4.265625 -23.9375 3.625 -23.078125 3.171875 -22.0625 C 3.109375 -21.84375 3.03125 -21.625 2.921875 -21.390625 C 2.578125 -20.6875 2.390625 -19.90625 2.25 -19.078125 C 2.09375 -18.140625 2.015625 -17.203125 1.875 -16.265625 C 1.796875 -15.59375 1.6875 -14.921875 1.640625 -14.25 C 1.578125 -13.5 1.578125 -12.71875 1.578125 -11.9375 Z M 13.84375 -13.875 C 13.84375 -12.5 13.734375 -11.109375 13.5 -9.71875 C 13.390625 -8.828125 13.09375 -7.96875 12.6875 -7.140625 C 12.421875 -6.578125 12 -6.09375 11.484375 -5.796875 C 10.953125 -5.46875 10.40625 -5.3125 9.765625 -5.53125 C 9.28125 -5.71875 8.796875 -5.953125 8.34375 -6.203125 C 7.8125 -6.546875 7.484375 -7 7.21875 -7.515625 C 6.875 -8.15625 6.765625 -8.828125 6.65625 -9.5 C 6.390625 -11.03125 6.28125 -12.609375 6.359375 -14.140625 C 6.46875 -15.78125 6.765625 -17.4375 7.59375 -18.890625 C 8.046875 -19.640625 8.5625 -20.3125 9.203125 -20.90625 C 9.46875 -21.203125 9.796875 -21.328125 10.21875 -21.328125 C 10.65625 -21.28125 11.109375 -21.25 11.515625 -21.09375 C 11.75 -21.015625 11.890625 -20.90625 12 -20.765625 C 12.421875 -20.34375 12.6875 -19.828125 12.90625 -19.296875 C 13.3125 -18.359375 13.546875 -17.390625 13.65625 -16.390625 C 13.734375 -15.5625 13.765625 -14.734375 13.84375 -13.875 Z M 13.84375 -13.875 "/></g></g></g><g fill="#6c89a4" fill-opacity="1"><g transform="translate(115.241994, 329.162581)"><g><path d="M 13.84375 -1.078125 L 13.84375 -0.34375 C 13.875 -0.15625 13.875 0.03125 13.921875 0.21875 C 13.953125 0.40625 14.0625 0.53125 14.296875 0.53125 L 15.75 0.640625 C 16.5 0.703125 17.25 0.703125 17.953125 0.640625 C 18.21875 0.59375 18.4375 0.59375 18.671875 0.5625 C 18.921875 0.53125 19.078125 0.40625 19.078125 0.15625 C 19.078125 -0.34375 19.046875 -0.859375 19.046875 -1.390625 L 19.046875 -2.015625 C 19.078125 -3 19 -3.921875 19.15625 -4.90625 L 19.1875 -4.90625 C 19.1875 -6.015625 19.234375 -7.109375 19.234375 -8.234375 C 19.234375 -8.90625 19.1875 -9.578125 19.15625 -10.25 C 19.109375 -11.265625 19.078125 -12.3125 19.046875 -13.3125 L 19.046875 -13.5 C 18.96875 -13.765625 18.890625 -13.875 18.625 -13.921875 C 18.40625 -13.921875 18.21875 -13.875 18 -13.875 C 17.875 -13.875 17.765625 -13.84375 17.625 -13.84375 C 17.0625 -13.84375 16.5 -13.875 15.9375 -13.84375 C 15.265625 -13.84375 14.625 -13.765625 13.953125 -13.765625 C 13.46875 -13.765625 12.984375 -13.84375 12.5 -13.875 C 12.1875 -13.875 11.859375 -13.921875 11.515625 -13.875 C 11 -13.84375 10.765625 -13.546875 10.734375 -13.015625 L 10.734375 -12.1875 C 10.734375 -11.296875 10.734375 -10.40625 10.703125 -9.5 C 10.703125 -8.90625 10.890625 -8.75 11.484375 -8.75 C 11.671875 -8.75 11.890625 -8.71875 12.125 -8.671875 C 12.3125 -8.640625 12.5 -8.609375 12.71875 -8.609375 C 13.0625 -8.5625 13.421875 -8.53125 13.765625 -8.484375 C 13.953125 -8.484375 13.984375 -8.421875 13.984375 -8.234375 C 13.921875 -7.703125 13.875 -7.140625 13.765625 -6.625 C 13.734375 -6.4375 13.65625 -6.203125 13.546875 -6.015625 C 13.359375 -5.796875 13.125 -5.578125 12.875 -5.421875 C 12.640625 -5.28125 12.375 -5.234375 12.125 -5.15625 C 11.328125 -4.828125 10.46875 -4.859375 9.65625 -5.046875 L 9.09375 -5.15625 C 8.75 -5.203125 8.53125 -5.34375 8.296875 -5.578125 C 8.109375 -5.828125 7.96875 -6.09375 7.8125 -6.359375 C 7.515625 -6.921875 7.375 -7.5625 7.21875 -8.15625 C 7.109375 -8.609375 7 -9.09375 6.953125 -9.578125 C 6.921875 -10.25 6.921875 -10.921875 6.921875 -11.59375 C 6.921875 -11.75 6.875 -11.890625 6.875 -12.078125 C 6.875 -12.265625 6.84375 -12.5 6.875 -12.6875 C 7 -13.015625 6.953125 -13.359375 7 -13.6875 C 7 -13.875 7.03125 -14.0625 7.0625 -14.25 C 7.0625 -14.46875 7.109375 -14.734375 7.140625 -14.96875 L 7.140625 -15.53125 C 7.25 -16.3125 7.40625 -17.09375 7.625 -17.84375 C 8.046875 -19.109375 8.75 -20.234375 9.765625 -21.140625 C 9.796875 -21.171875 9.84375 -21.203125 9.90625 -21.25 C 10.40625 -21.4375 10.890625 -21.703125 11.40625 -21.703125 L 12.90625 -21.703125 C 13.390625 -21.703125 13.796875 -21.4375 13.921875 -20.90625 C 14.03125 -20.28125 14.109375 -19.59375 14.21875 -18.921875 C 14.25 -18.734375 14.296875 -18.546875 14.359375 -18.359375 C 14.40625 -18.21875 14.546875 -18.171875 14.703125 -18.140625 C 15.078125 -18.140625 15.453125 -18.140625 15.78125 -18.109375 C 16.3125 -18.109375 16.796875 -18.0625 17.28125 -18.109375 C 17.765625 -18.109375 18.21875 -18.171875 18.671875 -18.21875 C 18.890625 -18.25 18.921875 -18.328125 18.921875 -18.515625 L 18.921875 -19.78125 C 18.921875 -20.421875 18.890625 -21.015625 18.890625 -21.625 C 18.859375 -22.4375 18.734375 -23.265625 18.40625 -24.015625 C 18.25 -24.421875 18.0625 -24.796875 17.765625 -25.140625 C 17.625 -25.28125 17.5 -25.46875 17.3125 -25.625 C 17.09375 -25.84375 16.875 -26.078125 16.578125 -26.265625 C 16.234375 -26.484375 15.828125 -26.671875 15.453125 -26.859375 C 15.296875 -26.9375 15.15625 -26.96875 14.96875 -27 C 14.4375 -27.15625 13.921875 -27.265625 13.390625 -27.375 C 12.609375 -27.5625 11.828125 -27.609375 11.078125 -27.5 C 10.59375 -27.421875 10.09375 -27.265625 9.609375 -27.078125 C 8.859375 -26.859375 8.078125 -26.640625 7.40625 -26.21875 L 6.625 -25.765625 C 6.171875 -25.46875 5.6875 -25.21875 5.28125 -24.875 C 4.453125 -24.203125 3.8125 -23.296875 3.359375 -22.328125 C 3 -21.46875 2.734375 -20.578125 2.4375 -19.671875 C 2.0625 -18.515625 1.828125 -17.3125 1.71875 -16.125 C 1.640625 -15.296875 1.640625 -14.46875 1.609375 -13.65625 C 1.609375 -13.546875 1.609375 -13.46875 1.578125 -13.359375 C 1.5 -11.9375 1.5 -10.46875 1.578125 -9.015625 C 1.640625 -7.515625 1.9375 -6.09375 2.359375 -4.671875 C 2.6875 -3.484375 3.296875 -2.390625 4.265625 -1.578125 C 4.53125 -1.390625 4.75 -1.125 5.015625 -0.890625 C 5.53125 -0.375 6.203125 0 6.921875 0.21875 C 7.375 0.375 7.859375 0.453125 8.34375 0.53125 C 9.09375 0.671875 9.84375 0.59375 10.546875 0.40625 C 11.078125 0.265625 11.59375 0.078125 12.125 -0.078125 C 12.5 -0.1875 12.828125 -0.34375 13.125 -0.59375 C 13.359375 -0.75 13.578125 -0.890625 13.84375 -1.078125 Z M 13.84375 -1.078125 "/></g></g></g><g fill="#6c89a4" fill-opacity="1"><g transform="translate(135.964942, 329.162581)"><g><path d="M 6.734375 -12.375 C 6.703125 -14.515625 6.703125 -16.6875 6.65625 -18.8125 C 6.65625 -19.296875 6.625 -19.75 6.578125 -20.234375 C 6.578125 -20.71875 6.546875 -21.203125 6.515625 -21.703125 L 6.515625 -26.328125 C 6.46875 -26.671875 6.359375 -26.78125 6.015625 -26.78125 C 5.828125 -26.78125 5.640625 -26.75 5.5 -26.75 C 5.203125 -26.75 4.9375 -26.703125 4.671875 -26.703125 C 3.96875 -26.703125 3.296875 -26.75 2.578125 -26.703125 C 1.90625 -26.703125 1.828125 -26.59375 1.796875 -25.921875 C 1.71875 -24.875 1.640625 -23.796875 1.578125 -22.703125 C 1.5 -21.25 1.53125 -19.75 1.640625 -18.296875 C 1.6875 -17.546875 1.765625 -16.796875 1.765625 -16.078125 L 1.765625 -10.46875 C 1.828125 -7.96875 1.640625 -5.421875 1.578125 -2.875 C 1.53125 -2.015625 1.578125 -1.203125 1.53125 -0.34375 C 1.53125 -0.03125 1.6875 0.15625 1.9375 0.265625 C 2.0625 0.296875 2.125 0.296875 2.25 0.296875 L 5.875 0.296875 C 6.09375 0.296875 6.203125 0.1875 6.203125 -0.078125 C 6.25 -0.15625 6.203125 -0.21875 6.203125 -0.34375 C 6.25 -0.671875 6.25 -1.015625 6.28125 -1.34375 C 6.328125 -2.46875 6.4375 -3.59375 6.46875 -4.71875 C 6.515625 -5.53125 6.515625 -6.359375 6.546875 -7.1875 C 6.578125 -7.8125 6.578125 -8.453125 6.625 -9.046875 C 6.65625 -10.140625 6.703125 -11.265625 6.734375 -12.375 Z M 6.734375 -12.375 "/></g></g></g><g fill="#6c89a4" fill-opacity="1"><g transform="translate(144.194271, 329.162581)"><g><path d="M 8.109375 -8.484375 L 8.15625 -8.484375 C 8.15625 -9.015625 8.1875 -9.53125 8.1875 -10.0625 L 8.1875 -11.59375 C 8.234375 -11.859375 8.234375 -11.828125 8.453125 -11.9375 C 8.75 -12.046875 9.015625 -12.046875 9.3125 -12.046875 C 10.03125 -12.125 10.734375 -12.234375 11.453125 -12.3125 C 11.703125 -12.34375 11.96875 -12.34375 12.1875 -12.34375 C 12.5625 -12.375 12.9375 -12.421875 13.28125 -12.453125 C 13.734375 -12.5 14.171875 -12.5 14.59375 -12.53125 C 15.03125 -12.5625 15.109375 -12.71875 15.109375 -13.125 C 15.109375 -13.734375 15.109375 -14.296875 15.078125 -14.84375 C 15.078125 -15.484375 15.03125 -16.078125 15.03125 -16.71875 C 15 -17.015625 14.890625 -17.171875 14.59375 -17.25 C 14.515625 -17.25 14.4375 -17.28125 14.359375 -17.28125 C 13.953125 -17.25 13.578125 -17.25 13.171875 -17.203125 C 12.6875 -17.171875 12.15625 -17.125 11.640625 -17.171875 C 10.890625 -17.203125 10.140625 -17.28125 9.390625 -17.171875 C 9.046875 -17.125 8.71875 -17.125 8.375 -17.09375 C 8.234375 -17.0625 8.1875 -17.09375 8.15625 -17.25 L 8.15625 -20.28125 C 8.15625 -20.53125 8.15625 -20.5 8.421875 -20.53125 C 9.015625 -20.609375 9.65625 -20.6875 10.25 -20.765625 C 10.625 -20.828125 11 -20.90625 11.40625 -20.90625 C 12.53125 -20.90625 13.65625 -20.90625 14.78125 -21.015625 C 15.34375 -21.09375 15.859375 -21.09375 16.390625 -21.0625 C 16.609375 -21.015625 16.828125 -21.0625 17.015625 -21.09375 C 17.25 -21.140625 17.359375 -21.25 17.390625 -21.4375 C 17.5 -21.703125 17.5 -21.953125 17.46875 -22.25 C 17.46875 -22.40625 17.4375 -22.59375 17.4375 -22.75 C 17.390625 -23.5625 17.3125 -24.390625 17.28125 -25.21875 C 17.25 -25.515625 17.25 -25.84375 17.25 -26.1875 L 17.25 -26.40625 C 17.203125 -26.671875 17.09375 -26.75 16.875 -26.78125 C 16.6875 -26.8125 16.5 -26.859375 16.3125 -26.859375 C 15.15625 -26.8125 13.953125 -26.8125 12.796875 -26.78125 C 11.59375 -26.703125 10.40625 -26.703125 9.203125 -26.78125 C 8.640625 -26.8125 8.046875 -26.890625 7.484375 -26.890625 C 6.4375 -26.9375 5.34375 -26.96875 4.296875 -26.96875 C 4.046875 -27 3.734375 -27.046875 3.484375 -27.078125 L 2.734375 -27.078125 C 2.4375 -27.046875 2.3125 -26.890625 2.28125 -26.5625 C 2.28125 -26.109375 2.25 -25.703125 2.203125 -25.25 C 2.125 -24.34375 2.015625 -23.484375 2.015625 -22.59375 C 1.984375 -21.25 1.984375 -19.90625 2.015625 -18.515625 C 2.0625 -17.171875 2.125 -15.859375 2.171875 -14.515625 C 2.203125 -13.609375 2.171875 -12.75 2.125 -11.859375 C 2.015625 -10.171875 1.984375 -8.484375 1.9375 -6.765625 C 1.90625 -6.25 1.90625 -5.71875 1.875 -5.203125 C 1.796875 -4.34375 1.765625 -3.4375 1.6875 -2.578125 C 1.640625 -2.015625 1.578125 -1.453125 1.53125 -0.890625 C 1.5 -0.671875 1.5 -0.453125 1.5 -0.265625 C 1.5 0 1.640625 0.109375 1.875 0.15625 C 2.203125 0.1875 2.546875 0.265625 2.875 0.265625 C 3.59375 0.296875 4.296875 0.34375 4.96875 0.296875 C 6.171875 0.296875 7.328125 0.296875 8.484375 0.265625 L 8.796875 0.265625 C 9.234375 0.21875 9.609375 0.21875 10.03125 0.1875 L 12.796875 0.1875 C 13.390625 0.15625 14.03125 0.109375 14.65625 0.15625 C 15.375 0.1875 16.125 0.21875 16.828125 0 C 17.25 -0.15625 17.390625 -0.296875 17.390625 -0.75 L 17.390625 -3.703125 C 17.390625 -4 17.359375 -4.296875 17.28125 -4.59375 C 17.203125 -4.9375 17.015625 -5.09375 16.640625 -5.09375 L 16.203125 -5.09375 C 15.265625 -5.015625 14.296875 -4.9375 13.359375 -4.9375 C 12.3125 -4.90625 11.265625 -4.90625 10.25 -4.9375 C 9.875 -4.9375 9.46875 -4.96875 9.09375 -5.015625 C 8.859375 -5.015625 8.640625 -5.046875 8.421875 -5.046875 C 8.109375 -5.046875 8.109375 -5.09375 8.109375 -5.34375 Z M 8.109375 -8.484375 "/></g></g></g><g fill="#6c89a4" fill-opacity="1"><g transform="translate(163.196547, 329.162581)"><g/></g></g><g fill="#6c89a4" fill-opacity="1"><g transform="translate(170.677757, 329.162581)"><g><path d="M 18.4375 0.34375 C 18.703125 0.40625 18.96875 0.34375 19.234375 0.265625 C 19.5625 0.1875 19.859375 -0.21875 19.828125 -0.5625 L 19.59375 -1.34375 C 19.484375 -1.765625 19.375 -2.125 19.265625 -2.5 C 19.15625 -3 19.078125 -3.484375 18.96875 -3.921875 C 18.890625 -4.265625 18.8125 -4.5625 18.734375 -4.90625 C 18.671875 -5.46875 18.546875 -6.0625 18.4375 -6.625 C 18.21875 -7.59375 17.953125 -8.609375 17.6875 -9.578125 C 17.203125 -11.375 16.71875 -13.203125 16.265625 -15 C 16.046875 -15.78125 15.828125 -16.609375 15.59375 -17.359375 C 15.34375 -18.328125 15 -19.265625 14.703125 -20.203125 C 14.546875 -20.796875 14.359375 -21.359375 14.25 -21.953125 C 14.109375 -22.625 13.984375 -23.34375 13.734375 -23.984375 C 13.6875 -24.09375 13.6875 -24.203125 13.65625 -24.3125 C 13.546875 -24.796875 13.421875 -25.28125 13.28125 -25.765625 C 13.171875 -26.1875 12.984375 -26.375 12.53125 -26.328125 C 12.3125 -26.296875 12.078125 -26.328125 11.859375 -26.375 C 11.59375 -26.40625 11.328125 -26.375 11.078125 -26.328125 C 10.46875 -26.265625 9.84375 -26.140625 9.203125 -26.078125 L 8.1875 -25.953125 C 8 -25.953125 7.859375 -25.84375 7.78125 -25.65625 C 7.625 -25.40625 7.484375 -25.140625 7.40625 -24.875 C 7.140625 -23.984375 6.953125 -23.109375 6.734375 -22.21875 C 6.65625 -21.921875 6.625 -21.625 6.515625 -21.359375 L 5.28125 -16.984375 C 4.9375 -15.859375 4.59375 -14.78125 4.265625 -13.65625 C 3.921875 -12.421875 3.546875 -11.21875 3.21875 -10.03125 C 3 -9.171875 2.8125 -8.296875 2.65625 -7.4375 C 2.5 -6.625 2.3125 -5.828125 2.09375 -5.046875 C 1.90625 -4.53125 1.71875 -3.96875 1.53125 -3.40625 C 1.3125 -2.546875 1.078125 -1.640625 0.828125 -0.78125 C 0.703125 -0.375 0.78125 -0.078125 1.15625 0.15625 C 1.265625 0.21875 1.390625 0.296875 1.53125 0.296875 C 1.796875 0.34375 2.0625 0.375 2.359375 0.375 C 3.328125 0.34375 4.296875 0.265625 5.28125 0.21875 C 5.578125 0.21875 5.828125 0.1875 6.140625 0.15625 C 6.359375 0.15625 6.546875 0 6.625 -0.21875 L 6.953125 -1.015625 C 7.1875 -1.453125 7.296875 -1.9375 7.375 -2.4375 C 7.4375 -2.953125 7.4375 -2.84375 7.890625 -2.84375 C 8.5625 -2.84375 9.234375 -2.84375 9.90625 -2.875 C 10.4375 -2.921875 11 -3 11.5625 -3.03125 C 12.078125 -3.0625 12.609375 -3.0625 13.125 -3.0625 C 13.28125 -3.109375 13.359375 -3.03125 13.390625 -2.875 C 13.390625 -2.65625 13.46875 -2.4375 13.5 -2.203125 C 13.65625 -1.421875 13.984375 -0.671875 14.328125 0.078125 C 14.40625 0.1875 14.515625 0.296875 14.65625 0.375 C 14.96875 0.59375 15.296875 0.59375 15.640625 0.5625 C 16.125 0.53125 16.578125 0.484375 17.015625 0.453125 C 17.171875 0.453125 17.3125 0.40625 17.46875 0.40625 C 17.8125 0.375 18.140625 0.375 18.4375 0.34375 Z M 10.359375 -16.125 C 10.46875 -15.859375 10.515625 -15.5625 10.625 -15.296875 C 10.8125 -14.734375 11 -14.21875 11.1875 -13.6875 C 11.515625 -12.71875 11.75 -11.671875 11.96875 -10.65625 C 12.046875 -10.328125 12.1875 -10.03125 12.265625 -9.6875 C 12.3125 -9.609375 12.3125 -9.578125 12.34375 -9.5 C 12.453125 -9.125 12.453125 -9.125 12.046875 -9.09375 C 11.328125 -8.984375 10.625 -8.984375 9.90625 -8.90625 L 9.046875 -8.90625 C 8.859375 -8.90625 8.828125 -8.90625 8.859375 -9.125 C 8.984375 -9.84375 9.09375 -10.546875 9.234375 -11.265625 C 9.5 -12.640625 9.796875 -14.03125 10.09375 -15.375 C 10.140625 -15.640625 10.21875 -15.890625 10.28125 -16.125 Z M 10.359375 -16.125 "/></g></g></g><g fill="#6c89a4" fill-opacity="1"><g transform="translate(191.288489, 329.162581)"><g><path d="M 6.390625 -12.5 C 6.390625 -12.984375 6.4375 -13.359375 6.4375 -13.765625 C 6.4375 -14.59375 6.46875 -15.40625 6.703125 -16.203125 C 6.734375 -16.3125 6.734375 -16.421875 6.765625 -16.53125 C 7 -17.8125 7.375 -19 8.265625 -19.96875 C 8.296875 -20.015625 8.296875 -20.046875 8.34375 -20.09375 C 8.609375 -20.5 9.015625 -20.828125 9.421875 -21.0625 C 9.84375 -21.25 10.25 -21.390625 10.703125 -21.46875 C 11.078125 -21.515625 11.40625 -21.390625 11.75 -21.359375 C 12.34375 -21.328125 12.828125 -21.0625 13.234375 -20.609375 C 13.46875 -20.390625 13.734375 -20.125 13.953125 -19.859375 C 14.21875 -19.59375 14.40625 -19.59375 14.65625 -19.78125 C 14.8125 -19.90625 15 -20.015625 15.15625 -20.125 C 15.9375 -20.765625 16.765625 -21.390625 17.546875 -22.0625 C 17.765625 -22.21875 17.953125 -22.4375 18.140625 -22.625 C 18.296875 -22.8125 18.296875 -23 18.171875 -23.234375 C 17.953125 -23.671875 17.65625 -24.046875 17.3125 -24.421875 C 16.984375 -24.84375 16.53125 -25.140625 16.078125 -25.4375 C 15.21875 -26.078125 14.21875 -26.484375 13.171875 -26.640625 C 12.984375 -26.671875 12.796875 -26.671875 12.640625 -26.703125 C 11.96875 -26.890625 11.328125 -26.8125 10.65625 -26.75 C 9.953125 -26.671875 9.234375 -26.5625 8.5625 -26.21875 C 8.34375 -26.109375 8.078125 -26.03125 7.859375 -25.921875 L 7.296875 -25.703125 C 7.1875 -25.625 7.03125 -25.578125 6.921875 -25.515625 C 5.984375 -24.953125 5.203125 -24.234375 4.53125 -23.421875 C 3.921875 -22.671875 3.484375 -21.84375 3.03125 -20.984375 C 2.84375 -20.640625 2.65625 -20.34375 2.546875 -19.96875 C 2.28125 -19.265625 2.0625 -18.515625 1.875 -17.765625 C 1.71875 -17.125 1.609375 -16.5 1.5 -15.859375 C 1.453125 -15.671875 1.390625 -15.453125 1.390625 -15.265625 C 1.390625 -14.703125 1.234375 -14.140625 1.15625 -13.609375 C 1.046875 -13.015625 1.015625 -12.375 0.96875 -11.75 C 0.9375 -11.328125 0.96875 -10.921875 1.015625 -10.515625 C 1.046875 -9.796875 1.078125 -9.125 1.3125 -8.453125 C 1.5 -7.859375 1.640625 -7.25 1.828125 -6.625 C 1.9375 -6.171875 2.0625 -5.6875 2.28125 -5.28125 C 2.359375 -5.09375 2.46875 -4.90625 2.546875 -4.71875 C 2.875 -3.78125 3.4375 -3.03125 4.046875 -2.28125 C 4.1875 -2.125 4.34375 -1.984375 4.484375 -1.875 C 4.75 -1.640625 5.015625 -1.421875 5.3125 -1.203125 C 5.71875 -0.890625 6.140625 -0.59375 6.625 -0.375 C 6.953125 -0.21875 7.328125 -0.109375 7.671875 0.078125 C 8.375 0.453125 9.09375 0.59375 9.84375 0.59375 L 12.078125 0.59375 C 13.0625 0.5625 13.953125 0.375 14.84375 0 C 15.078125 -0.078125 15.265625 -0.1875 15.453125 -0.265625 C 16.078125 -0.484375 16.640625 -0.828125 17.09375 -1.34375 C 17.5 -1.828125 17.953125 -2.359375 18.40625 -2.84375 C 18.4375 -2.921875 18.484375 -2.953125 18.515625 -3 C 18.703125 -3.328125 18.625 -3.671875 18.328125 -3.890625 C 18.171875 -3.96875 18.0625 -4.109375 17.921875 -4.234375 C 17.84375 -4.34375 17.734375 -4.40625 17.625 -4.484375 C 17.390625 -4.5625 17.25 -4.75 17.09375 -4.90625 L 16.53125 -5.578125 C 16.390625 -5.71875 16.234375 -5.875 16.078125 -6.0625 C 15.9375 -6.203125 15.78125 -6.4375 15.59375 -6.578125 C 15.34375 -6.8125 15.078125 -6.765625 14.78125 -6.578125 C 14.59375 -6.390625 14.40625 -6.25 14.21875 -6.09375 C 13.953125 -5.875 13.6875 -5.640625 13.421875 -5.5 C 12.90625 -5.203125 12.34375 -4.9375 11.703125 -4.96875 L 11.640625 -4.96875 C 11.03125 -4.828125 10.4375 -5.015625 9.90625 -5.234375 C 9.28125 -5.46875 8.640625 -5.765625 8.1875 -6.328125 C 8.15625 -6.390625 8.046875 -6.46875 7.96875 -6.546875 C 7.5625 -6.875 7.25 -7.296875 7.0625 -7.8125 C 6.84375 -8.53125 6.65625 -9.203125 6.546875 -9.953125 C 6.515625 -10.171875 6.4375 -10.4375 6.4375 -10.703125 C 6.390625 -11.296875 6.390625 -11.9375 6.390625 -12.5 Z M 6.390625 -12.5 "/></g></g></g><g fill="#6c89a4" fill-opacity="1"><g transform="translate(211.412937, 329.162581)"><g><path d="M 0.75 -0.78125 C 0.78125 -0.59375 0.78125 -0.40625 0.859375 -0.265625 C 0.9375 0 1.125 0.15625 1.390625 0.15625 C 1.71875 0.1875 2.015625 0.1875 2.359375 0.1875 C 2.734375 0.21875 3.109375 0.1875 3.484375 0.21875 C 4.296875 0.21875 5.15625 0.265625 5.984375 0.296875 C 6.25 0.296875 6.4375 0.1875 6.546875 0 C 6.65625 -0.15625 6.765625 -0.34375 6.84375 -0.53125 C 7.109375 -1.265625 7.375 -2.015625 7.59375 -2.8125 C 7.671875 -3.03125 7.671875 -3.0625 7.9375 -3.03125 C 8.296875 -3.03125 8.640625 -3 9.015625 -3 C 9.984375 -2.953125 11 -2.953125 11.96875 -2.921875 C 12.3125 -2.921875 12.6875 -2.953125 13.015625 -2.953125 C 13.171875 -2.953125 13.234375 -2.921875 13.28125 -2.734375 C 13.359375 -2.390625 13.421875 -2.015625 13.546875 -1.640625 C 13.6875 -1.078125 13.875 -0.484375 14.0625 0.078125 C 14.21875 0.53125 14.328125 0.5625 14.78125 0.484375 C 15.375 0.375 16.015625 0.296875 16.640625 0.296875 C 16.765625 0.34375 16.875 0.296875 16.984375 0.296875 C 17.765625 0.21875 18.59375 0.15625 19.40625 0.109375 C 19.828125 0.109375 20.09375 -0.1875 20.015625 -0.5625 C 19.9375 -1.046875 19.828125 -1.5 19.71875 -1.9375 C 19.671875 -2.09375 19.640625 -2.28125 19.5625 -2.4375 C 19.453125 -2.84375 19.375 -3.25 19.265625 -3.671875 C 19.078125 -4.296875 18.859375 -4.96875 18.671875 -5.640625 C 18.359375 -6.8125 18.109375 -7.96875 17.84375 -9.125 C 17.625 -10.03125 17.359375 -10.890625 17.125 -11.78125 C 16.765625 -13.125 16.390625 -14.4375 16.046875 -15.75 C 15.9375 -16.046875 15.859375 -16.3125 15.78125 -16.578125 C 15.5625 -17.359375 15.34375 -18.109375 15.15625 -18.890625 C 15 -19.34375 14.84375 -19.78125 14.84375 -20.28125 C 14.890625 -20.3125 14.84375 -20.34375 14.84375 -20.421875 C 14.703125 -20.984375 14.59375 -21.546875 14.4375 -22.140625 C 14.296875 -22.703125 14.109375 -23.265625 14.03125 -23.859375 C 13.953125 -24.5 13.6875 -25.0625 13.5 -25.65625 C 13.421875 -26 13.28125 -26.296875 13.0625 -26.5625 C 12.875 -26.78125 12.71875 -26.859375 12.421875 -26.859375 C 11.5625 -26.8125 10.703125 -26.8125 9.84375 -26.78125 C 9.34375 -26.78125 8.859375 -26.78125 8.375 -26.703125 C 8.046875 -26.640625 7.859375 -26.484375 7.78125 -26.21875 C 7.515625 -25.515625 7.25 -24.84375 7.03125 -24.171875 C 6.875 -23.640625 6.765625 -23.109375 6.625 -22.59375 L 6.515625 -21.921875 C 6.28125 -21.140625 6.0625 -20.3125 5.828125 -19.484375 C 5.578125 -18.671875 5.3125 -17.8125 5.046875 -16.984375 C 4.859375 -16.3125 4.71875 -15.671875 4.53125 -15.03125 C 4.375 -14.359375 4.234375 -13.734375 4.046875 -13.0625 C 3.59375 -11.40625 3.140625 -9.71875 2.765625 -8.046875 C 2.4375 -6.546875 2.09375 -5.015625 1.609375 -3.515625 C 1.453125 -3 1.3125 -2.46875 1.078125 -1.984375 C 0.890625 -1.609375 0.75 -1.234375 0.75 -0.78125 Z M 10.765625 -15.21875 C 10.890625 -14.546875 11 -13.921875 11.140625 -13.234375 C 11.265625 -12.53125 11.453125 -11.828125 11.703125 -11.140625 C 11.859375 -10.703125 11.96875 -10.21875 12 -9.71875 C 11.078125 -9.765625 10.140625 -9.796875 9.171875 -9.84375 C 9.203125 -9.90625 9.203125 -9.984375 9.234375 -10.0625 C 9.34375 -10.28125 9.421875 -10.546875 9.53125 -10.765625 C 9.765625 -11.328125 9.875 -11.890625 9.984375 -12.453125 C 10.0625 -13.015625 10.25 -13.609375 10.4375 -14.171875 C 10.46875 -14.46875 10.546875 -14.78125 10.625 -15.03125 C 10.65625 -15.109375 10.703125 -15.1875 10.703125 -15.21875 Z M 10.765625 -15.21875 "/></g></g></g><g fill="#6c89a4" fill-opacity="1"><g transform="translate(232.210701, 329.162581)"><g><path d="M 1.609375 -8.984375 C 1.609375 -8.484375 1.578125 -8 1.609375 -7.484375 C 1.640625 -6.390625 1.71875 -5.234375 1.796875 -4.15625 C 1.875 -2.921875 1.9375 -1.71875 2.015625 -0.53125 C 2.0625 -0.15625 2.125 -0.078125 2.5 -0.078125 C 3.625 -0.03125 4.75 0 5.875 0 C 6.734375 -0.03125 7.59375 -0.03125 8.453125 -0.078125 C 9.09375 -0.109375 9.765625 -0.1875 10.40625 -0.1875 C 11.375 -0.1875 12.265625 -0.40625 13.125 -0.78125 C 14.03125 -1.203125 14.921875 -1.640625 15.640625 -2.3125 C 16.015625 -2.6875 16.453125 -3 16.71875 -3.4375 C 17.015625 -3.890625 17.28125 -4.296875 17.546875 -4.75 C 18.0625 -5.609375 18.4375 -6.546875 18.59375 -7.515625 C 18.625 -7.671875 18.671875 -7.859375 18.703125 -8 C 18.890625 -8.859375 19.265625 -9.65625 19.265625 -10.515625 L 19.265625 -10.59375 C 19.34375 -11.03125 19.375 -11.515625 19.40625 -11.96875 C 19.40625 -12.265625 19.40625 -12.53125 19.453125 -12.828125 L 19.453125 -15.375 C 19.453125 -16.015625 19.375 -16.6875 19.34375 -17.3125 C 19.34375 -17.5 19.34375 -17.734375 19.296875 -17.921875 C 19.234375 -18.546875 19.15625 -19.1875 19.046875 -19.828125 C 19 -19.96875 18.96875 -20.125 18.921875 -20.3125 C 18.859375 -20.53125 18.78125 -20.796875 18.703125 -21.0625 C 18.515625 -21.515625 18.359375 -21.953125 18.140625 -22.40625 C 17.953125 -22.859375 17.65625 -23.296875 17.390625 -23.75 C 17.015625 -24.34375 16.5 -24.875 15.890625 -25.28125 C 15.15625 -25.8125 14.328125 -26.078125 13.5 -26.40625 C 13.421875 -26.453125 13.359375 -26.453125 13.234375 -26.484375 C 12.90625 -26.5625 12.609375 -26.59375 12.265625 -26.671875 C 12.15625 -26.703125 12.078125 -26.75 11.96875 -26.75 C 11.21875 -26.8125 10.515625 -26.9375 9.765625 -26.96875 C 8.859375 -27.046875 7.96875 -27.046875 7.0625 -27.078125 C 6.625 -27.078125 6.203125 -27 5.765625 -26.96875 C 5.5 -26.96875 5.234375 -26.9375 4.9375 -26.890625 C 4.15625 -26.890625 3.359375 -26.859375 2.578125 -26.859375 C 2.46875 -26.859375 2.359375 -26.859375 2.25 -26.8125 C 1.90625 -26.78125 1.796875 -26.671875 1.796875 -26.328125 C 1.765625 -25.46875 1.71875 -24.578125 1.6875 -23.671875 C 1.6875 -23.453125 1.609375 -23.1875 1.609375 -22.96875 C 1.578125 -22.671875 1.5 -22.375 1.5 -22.0625 C 1.53125 -17.6875 1.421875 -13.359375 1.609375 -8.984375 Z M 7.625 -11.40625 C 7.625 -12.984375 7.515625 -14.546875 7.5625 -16.078125 C 7.5625 -17.3125 7.625 -18.546875 7.78125 -19.78125 C 7.859375 -20.15625 7.859375 -20.53125 7.890625 -20.875 C 7.890625 -21.09375 7.9375 -21.140625 8.109375 -21.171875 C 8.671875 -21.203125 9.28125 -21.171875 9.84375 -21.015625 C 10.21875 -20.90625 10.59375 -20.796875 11 -20.640625 C 11.109375 -20.609375 11.21875 -20.53125 11.328125 -20.421875 C 11.890625 -19.9375 12.5 -19.40625 12.875 -18.703125 C 13.09375 -18.25 13.3125 -17.765625 13.46875 -17.25 C 13.734375 -16.53125 13.84375 -15.828125 13.796875 -15.078125 C 13.765625 -14.296875 13.796875 -13.5 13.734375 -12.71875 C 13.65625 -11.859375 13.5 -11 13.28125 -10.171875 C 13.09375 -9.3125 12.71875 -8.53125 12.15625 -7.8125 C 11.9375 -7.59375 11.703125 -7.375 11.453125 -7.25 C 11.03125 -7.0625 10.65625 -6.921875 10.28125 -6.734375 C 10.0625 -6.625 9.84375 -6.515625 9.65625 -6.390625 C 9.390625 -6.203125 9.09375 -6.0625 8.75 -6.0625 C 8.453125 -6.015625 8.1875 -5.984375 7.890625 -5.953125 C 7.78125 -5.953125 7.75 -6.015625 7.75 -6.140625 L 7.75 -6.25 C 7.703125 -7.78125 7.671875 -9.28125 7.671875 -10.8125 L 7.671875 -11.40625 Z M 7.625 -11.40625 "/></g></g></g><g fill="#6c89a4" fill-opacity="1"><g transform="translate(252.409964, 329.162581)"><g><path d="M 8.109375 -8.484375 L 8.15625 -8.484375 C 8.15625 -9.015625 8.1875 -9.53125 8.1875 -10.0625 L 8.1875 -11.59375 C 8.234375 -11.859375 8.234375 -11.828125 8.453125 -11.9375 C 8.75 -12.046875 9.015625 -12.046875 9.3125 -12.046875 C 10.03125 -12.125 10.734375 -12.234375 11.453125 -12.3125 C 11.703125 -12.34375 11.96875 -12.34375 12.1875 -12.34375 C 12.5625 -12.375 12.9375 -12.421875 13.28125 -12.453125 C 13.734375 -12.5 14.171875 -12.5 14.59375 -12.53125 C 15.03125 -12.5625 15.109375 -12.71875 15.109375 -13.125 C 15.109375 -13.734375 15.109375 -14.296875 15.078125 -14.84375 C 15.078125 -15.484375 15.03125 -16.078125 15.03125 -16.71875 C 15 -17.015625 14.890625 -17.171875 14.59375 -17.25 C 14.515625 -17.25 14.4375 -17.28125 14.359375 -17.28125 C 13.953125 -17.25 13.578125 -17.25 13.171875 -17.203125 C 12.6875 -17.171875 12.15625 -17.125 11.640625 -17.171875 C 10.890625 -17.203125 10.140625 -17.28125 9.390625 -17.171875 C 9.046875 -17.125 8.71875 -17.125 8.375 -17.09375 C 8.234375 -17.0625 8.1875 -17.09375 8.15625 -17.25 L 8.15625 -20.28125 C 8.15625 -20.53125 8.15625 -20.5 8.421875 -20.53125 C 9.015625 -20.609375 9.65625 -20.6875 10.25 -20.765625 C 10.625 -20.828125 11 -20.90625 11.40625 -20.90625 C 12.53125 -20.90625 13.65625 -20.90625 14.78125 -21.015625 C 15.34375 -21.09375 15.859375 -21.09375 16.390625 -21.0625 C 16.609375 -21.015625 16.828125 -21.0625 17.015625 -21.09375 C 17.25 -21.140625 17.359375 -21.25 17.390625 -21.4375 C 17.5 -21.703125 17.5 -21.953125 17.46875 -22.25 C 17.46875 -22.40625 17.4375 -22.59375 17.4375 -22.75 C 17.390625 -23.5625 17.3125 -24.390625 17.28125 -25.21875 C 17.25 -25.515625 17.25 -25.84375 17.25 -26.1875 L 17.25 -26.40625 C 17.203125 -26.671875 17.09375 -26.75 16.875 -26.78125 C 16.6875 -26.8125 16.5 -26.859375 16.3125 -26.859375 C 15.15625 -26.8125 13.953125 -26.8125 12.796875 -26.78125 C 11.59375 -26.703125 10.40625 -26.703125 9.203125 -26.78125 C 8.640625 -26.8125 8.046875 -26.890625 7.484375 -26.890625 C 6.4375 -26.9375 5.34375 -26.96875 4.296875 -26.96875 C 4.046875 -27 3.734375 -27.046875 3.484375 -27.078125 L 2.734375 -27.078125 C 2.4375 -27.046875 2.3125 -26.890625 2.28125 -26.5625 C 2.28125 -26.109375 2.25 -25.703125 2.203125 -25.25 C 2.125 -24.34375 2.015625 -23.484375 2.015625 -22.59375 C 1.984375 -21.25 1.984375 -19.90625 2.015625 -18.515625 C 2.0625 -17.171875 2.125 -15.859375 2.171875 -14.515625 C 2.203125 -13.609375 2.171875 -12.75 2.125 -11.859375 C 2.015625 -10.171875 1.984375 -8.484375 1.9375 -6.765625 C 1.90625 -6.25 1.90625 -5.71875 1.875 -5.203125 C 1.796875 -4.34375 1.765625 -3.4375 1.6875 -2.578125 C 1.640625 -2.015625 1.578125 -1.453125 1.53125 -0.890625 C 1.5 -0.671875 1.5 -0.453125 1.5 -0.265625 C 1.5 0 1.640625 0.109375 1.875 0.15625 C 2.203125 0.1875 2.546875 0.265625 2.875 0.265625 C 3.59375 0.296875 4.296875 0.34375 4.96875 0.296875 C 6.171875 0.296875 7.328125 0.296875 8.484375 0.265625 L 8.796875 0.265625 C 9.234375 0.21875 9.609375 0.21875 10.03125 0.1875 L 12.796875 0.1875 C 13.390625 0.15625 14.03125 0.109375 14.65625 0.15625 C 15.375 0.1875 16.125 0.21875 16.828125 0 C 17.25 -0.15625 17.390625 -0.296875 17.390625 -0.75 L 17.390625 -3.703125 C 17.390625 -4 17.359375 -4.296875 17.28125 -4.59375 C 17.203125 -4.9375 17.015625 -5.09375 16.640625 -5.09375 L 16.203125 -5.09375 C 15.265625 -5.015625 14.296875 -4.9375 13.359375 -4.9375 C 12.3125 -4.90625 11.265625 -4.90625 10.25 -4.9375 C 9.875 -4.9375 9.46875 -4.96875 9.09375 -5.015625 C 8.859375 -5.015625 8.640625 -5.046875 8.421875 -5.046875 C 8.109375 -5.046875 8.109375 -5.09375 8.109375 -5.34375 Z M 8.109375 -8.484375 "/></g></g></g><g fill="#6c89a4" fill-opacity="1"><g transform="translate(271.41224, 329.162581)"><g><path d="M 15.78125 -13.609375 C 15.828125 -13.609375 15.828125 -13.609375 15.859375 -13.578125 C 15.859375 -13.3125 15.859375 -13.0625 15.890625 -12.796875 C 15.9375 -11.890625 15.9375 -11 16.015625 -10.140625 C 16.015625 -9.5 16.046875 -8.90625 16.078125 -8.296875 C 16.078125 -8.109375 16.125 -7.96875 16.125 -7.78125 C 16.125 -6.4375 16.15625 -5.046875 16.203125 -3.671875 C 16.234375 -2.46875 16.3125 -1.234375 16.34375 -0.03125 C 16.390625 0.21875 16.5 0.375 16.765625 0.375 C 16.828125 0.40625 16.90625 0.40625 16.984375 0.40625 C 17.953125 0.375 18.921875 0.375 19.90625 0.34375 L 20.09375 0.34375 C 20.390625 0.21875 20.71875 0.21875 21.0625 0.21875 L 21.4375 0.21875 C 21.8125 0.1875 22 -0.03125 22 -0.40625 C 22.03125 -0.484375 22 -0.59375 22 -0.671875 C 21.953125 -2.203125 21.921875 -3.703125 21.875 -5.203125 C 21.8125 -6.390625 21.734375 -7.515625 21.65625 -8.71875 C 21.578125 -10.09375 21.546875 -11.515625 21.515625 -12.9375 C 21.4375 -14.25 21.46875 -15.5625 21.390625 -16.875 C 21.359375 -18.109375 21.25 -19.296875 21.203125 -20.53125 C 21.140625 -21.84375 21.09375 -23.109375 21.0625 -24.421875 C 21.0625 -25.03125 21.015625 -25.625 20.984375 -26.21875 C 20.984375 -26.328125 20.984375 -26.453125 20.953125 -26.5625 C 20.875 -26.859375 20.796875 -26.9375 20.46875 -26.96875 C 19.96875 -27 19.484375 -27.046875 19 -27.125 C 18.109375 -27.265625 17.171875 -27.15625 16.265625 -27.234375 C 16.046875 -27.234375 15.9375 -27.125 15.859375 -26.890625 C 15.5625 -26.1875 15.21875 -25.515625 14.96875 -24.796875 C 14.40625 -23.5625 13.875 -22.296875 13.359375 -21.0625 C 13.28125 -20.875 13.203125 -20.640625 13.09375 -20.46875 L 11.640625 -17.65625 C 11.59375 -17.578125 11.5625 -17.546875 11.484375 -17.46875 C 11.40625 -17.625 11.296875 -17.734375 11.265625 -17.84375 C 11.078125 -18.21875 10.890625 -18.59375 10.734375 -18.96875 C 10.328125 -19.71875 9.953125 -20.5 9.578125 -21.28125 C 9.28125 -21.84375 9.046875 -22.4375 8.75 -23.046875 C 8.34375 -23.828125 8 -24.6875 7.703125 -25.546875 C 7.59375 -25.921875 7.40625 -26.296875 7.25 -26.671875 C 7.1875 -26.859375 7.03125 -27 6.84375 -27.046875 C 6.328125 -27.078125 5.796875 -27.15625 5.28125 -27.1875 C 5.09375 -27.234375 4.90625 -27.234375 4.71875 -27.234375 C 3.890625 -27.3125 3.03125 -27.3125 2.203125 -27.125 C 1.9375 -27.078125 1.828125 -27 1.828125 -26.75 C 1.765625 -26 1.6875 -25.25 1.6875 -24.46875 C 1.640625 -22.9375 1.640625 -21.390625 1.640625 -19.859375 C 1.640625 -16.53125 1.640625 -13.234375 1.609375 -9.953125 C 1.609375 -8 1.578125 -6.09375 1.53125 -4.1875 C 1.5 -2.953125 1.53125 -1.765625 1.53125 -0.53125 C 1.53125 -0.078125 1.609375 0.078125 2.09375 0.109375 C 2.765625 0.21875 3.4375 0.265625 4.109375 0.296875 C 5.046875 0.34375 6.015625 0.1875 6.953125 0.15625 C 7.328125 0.109375 7.4375 0 7.4375 -0.375 C 7.4375 -0.671875 7.40625 -0.9375 7.40625 -1.234375 L 7.40625 -3.359375 C 7.40625 -6.8125 7.4375 -10.25 7.484375 -13.6875 C 7.484375 -13.734375 7.484375 -13.796875 7.515625 -13.921875 C 7.59375 -13.765625 7.625 -13.6875 7.671875 -13.578125 C 8.1875 -12.421875 8.671875 -11.21875 9.203125 -10.0625 C 9.421875 -9.5 9.6875 -8.90625 9.984375 -8.34375 C 10.28125 -7.75 10.625 -7.140625 11.078125 -6.65625 C 11.265625 -6.515625 11.453125 -6.390625 11.640625 -6.359375 C 11.859375 -6.28125 12 -6.359375 12.125 -6.546875 C 12.421875 -6.953125 12.6875 -7.328125 12.9375 -7.78125 C 13.734375 -9.171875 14.46875 -10.59375 15.109375 -12.046875 C 15.265625 -12.5 15.453125 -12.90625 15.671875 -13.359375 C 15.703125 -13.421875 15.75 -13.546875 15.78125 -13.609375 Z M 15.78125 -13.609375 "/></g></g></g><g fill="#6c89a4" fill-opacity="1"><g transform="translate(294.940642, 329.162581)"><g><path d="M 9.125 -20.203125 C 8.9375 -20.609375 8.75 -20.90625 8.609375 -21.25 C 8.109375 -22.4375 7.625 -23.640625 7.1875 -24.84375 C 6.921875 -25.515625 6.578125 -26.078125 6.203125 -26.671875 C 6.140625 -26.78125 6.015625 -26.859375 5.875 -26.859375 C 5.234375 -26.890625 4.59375 -26.890625 3.96875 -27 C 3 -27.15625 2.0625 -26.9375 1.078125 -26.75 C 0.78125 -26.671875 0.703125 -26.453125 0.828125 -26.1875 C 1.3125 -25.28125 1.71875 -24.34375 2.3125 -23.484375 C 2.5 -23.234375 2.65625 -22.890625 2.84375 -22.59375 C 3 -22.328125 3.0625 -22.03125 3.21875 -21.765625 C 3.703125 -20.90625 4.1875 -20.015625 4.671875 -19.15625 C 5.09375 -18.359375 5.53125 -17.625 5.984375 -16.828125 C 6.359375 -16.15625 6.734375 -15.53125 7.0625 -14.84375 C 7.109375 -14.78125 7.140625 -14.65625 7.140625 -14.546875 C 7.140625 -13.09375 7.109375 -11.640625 7.109375 -10.171875 C 7.109375 -9.578125 7.0625 -8.9375 7.0625 -8.34375 C 7.0625 -7.5625 7.03125 -6.734375 7.03125 -5.953125 C 7.0625 -4.234375 7.109375 -2.46875 7.140625 -0.75 C 7.140625 -0.59375 7.1875 -0.453125 7.1875 -0.296875 C 7.21875 0 7.328125 0.109375 7.625 0.109375 L 8.859375 0.109375 C 9.796875 0.109375 10.765625 0.1875 11.671875 -0.15625 C 11.96875 -0.265625 12.046875 -0.34375 12.078125 -0.671875 C 12.125 -1.125 12.125 -1.609375 12.15625 -2.0625 L 12.15625 -5.34375 C 12.15625 -6.09375 12.125 -6.84375 12.125 -7.59375 C 12.15625 -9.5 12.234375 -11.453125 12.265625 -13.390625 C 12.265625 -13.609375 12.3125 -13.84375 12.421875 -14.0625 C 12.6875 -14.703125 12.984375 -15.34375 13.234375 -15.9375 C 13.84375 -17.3125 14.546875 -18.625 15.078125 -20.015625 C 15.453125 -21.015625 15.890625 -21.953125 16.3125 -22.9375 C 16.71875 -23.984375 17.25 -24.984375 17.8125 -25.953125 C 17.875 -26.109375 18 -26.265625 17.875 -26.453125 C 17.8125 -26.59375 17.625 -26.59375 17.4375 -26.59375 C 16.578125 -26.5625 15.671875 -26.5625 14.78125 -26.5625 C 14.25 -26.515625 13.6875 -26.5625 13.125 -26.5625 C 12.984375 -26.5625 12.828125 -26.5625 12.71875 -26.40625 C 12.5 -26.109375 12.265625 -25.8125 12.046875 -25.46875 C 11.75 -24.984375 11.484375 -24.46875 11.21875 -23.984375 C 10.734375 -23.078125 10.28125 -22.1875 9.796875 -21.28125 C 9.578125 -20.953125 9.34375 -20.609375 9.125 -20.203125 Z M 9.125 -20.203125 "/></g></g></g></svg>