<svg viewBox="156 110.98757763975163 499.2 487.51552795031057" xmlns="http://www.w3.org/2000/svg" overflow="visible" xmlns:xlink="http://www.w3.org/1999/xlink" width="499.2px" height="487.51552795031057px"><g id="Master/Spot Illustration/Working" stroke="none" stroke-width="1" fill="none" fill-rule="evenodd"><g id="Floor/Carpet" transform="translate(151.721600, 471.398000) scale(1 1)"><g id="Floor/Carpet/White" stroke="none" stroke-width="1" fill="none" fill-rule="evenodd"><g id="Simple-Carpet" transform="translate(41.000000, 32.000000)"><path d="M450.8618,46.9304 C450.8618,72.5734 350.0448,93.3614 225.6808,93.3614 C101.3178,93.3614 0.5008,72.5734 0.5008,46.9304 C0.5008,21.2864 101.3178,0.4994 225.6808,0.4994 C350.0448,0.4994 450.8618,21.2864 450.8618,46.9304" id="Carpet" fill="#FDD"/><path d="M27.204,55.534 C27.48,55.534 27.704,55.31 27.704,55.034 C27.704,54.017 28.708,53.213 29.77,53.61 C30.001,53.694 30.257,53.604 30.38,53.392 C30.658,52.91 31.151,52.622 31.697,52.622 C32.387,52.622 32.992,53.092 33.168,53.764 C33.214,53.94 33.351,54.077 33.527,54.122 C33.701,54.168 33.889,54.113 34.014,53.982 C34.306,53.676 34.697,53.507 35.116,53.507 C35.958,53.507 36.644,54.192 36.644,55.034 C36.644,55.31 36.868,55.534 37.144,55.534 C37.42,55.534 37.644,55.31 37.644,55.034 C37.644,53.64 36.51,52.507 35.116,52.507 C34.665,52.507 34.234,52.624 33.854,52.845 C33.406,52.1 32.595,51.622 31.697,51.622 C30.936,51.622 30.217,51.974 29.741,52.561 C28.168,52.228 26.704,53.471 26.704,55.034 C26.704,55.31 26.928,55.534 27.204,55.534 M370.476,81.984 C330.035,88.998 278.613,92.861 225.681,92.861 C101.792,92.861 1,72.257 1,46.93 C1,46.654 0.777,46.43 0.5,46.43 C0.224,46.43 0,46.654 0,46.93 C0,59.596 23.565,71.429 66.353,80.252 C108.917,89.028 165.5,93.861 225.681,93.861 C278.668,93.861 330.151,89.993 370.647,82.969 C370.919,82.922 371.101,82.663 371.054,82.391 C371.007,82.118 370.748,81.928 370.476,81.984 M84.281,48.887 C84.557,48.887 84.781,48.663 84.781,48.387 C84.781,47.368 85.792,46.565 86.846,46.962 C87.074,47.049 87.334,46.957 87.457,46.745 C87.735,46.263 88.227,45.974 88.774,45.974 C89.464,45.974 90.069,46.444 90.245,47.116 C90.291,47.291 90.428,47.428 90.603,47.473 C90.78,47.517 90.965,47.465 91.09,47.335 C91.383,47.027 91.775,46.858 92.193,46.858 C93.035,46.858 93.721,47.544 93.721,48.387 C93.721,48.663 93.944,48.887 94.221,48.887 C94.497,48.887 94.721,48.663 94.721,48.387 C94.721,46.992 93.587,45.858 92.193,45.858 C91.742,45.858 91.311,45.975 90.932,46.197 C90.483,45.453 89.672,44.974 88.774,44.974 C88.013,44.974 87.294,45.326 86.819,45.914 C85.248,45.571 83.781,46.822 83.781,48.387 C83.781,48.663 84.004,48.887 84.281,48.887 M374.247,70.53 C373.797,70.53 373.366,70.647 372.986,70.869 C372.538,70.125 371.727,69.645 370.829,69.645 C370.068,69.645 369.35,69.998 368.873,70.586 C367.301,70.244 365.835,71.494 365.835,73.058 C365.835,73.335 366.059,73.558 366.335,73.558 C366.612,73.558 366.835,73.335 366.835,73.058 C366.835,72.04 367.846,71.236 368.901,71.634 C369.127,71.721 369.389,71.63 369.512,71.417 C369.79,70.933 370.282,70.645 370.829,70.645 C371.518,70.645 372.123,71.115 372.299,71.788 C372.346,71.963 372.482,72.099 372.658,72.145 C372.834,72.191 373.019,72.137 373.145,72.007 C373.438,71.699 373.829,71.53 374.247,71.53 C375.09,71.53 375.775,72.216 375.775,73.058 C375.775,73.335 375.999,73.558 376.275,73.558 C376.552,73.558 376.775,73.335 376.775,73.058 C376.775,71.664 375.641,70.53 374.247,70.53 M381.316,49.296 C380.866,49.296 380.434,49.413 380.055,49.634 C379.607,48.889 378.796,48.411 377.898,48.411 C377.137,48.411 376.418,48.763 375.942,49.35 C374.366,49.02 372.905,50.262 372.905,51.823 C372.905,52.099 373.128,52.323 373.405,52.323 C373.681,52.323 373.905,52.099 373.905,51.823 C373.905,50.806 374.908,50 375.971,50.399 C376.2,50.485 376.458,50.393 376.58,50.181 C376.859,49.699 377.351,49.411 377.898,49.411 C378.587,49.411 379.192,49.881 379.369,50.554 C379.415,50.729 379.552,50.866 379.728,50.911 C379.903,50.957 380.09,50.902 380.215,50.771 C380.507,50.465 380.898,50.296 381.316,50.296 C382.159,50.296 382.845,50.981 382.845,51.823 C382.845,52.099 383.068,52.323 383.345,52.323 C383.621,52.323 383.845,52.099 383.845,51.823 C383.845,50.43 382.71,49.296 381.316,49.296 M322.598,41.208 C322.874,41.208 323.098,40.984 323.098,40.708 C323.098,39.691 324.101,38.886 325.164,39.284 C325.394,39.368 325.651,39.277 325.774,39.066 C326.052,38.584 326.545,38.296 327.091,38.296 C327.781,38.296 328.386,38.765 328.562,39.438 C328.608,39.614 328.746,39.751 328.921,39.796 C329.096,39.842 329.283,39.787 329.408,39.656 C329.7,39.349 330.091,39.18 330.51,39.18 C331.352,39.18 332.038,39.866 332.038,40.708 C332.038,40.984 332.262,41.208 332.538,41.208 C332.814,41.208 333.038,40.984 333.038,40.708 C333.038,39.314 331.904,38.18 330.51,38.18 C330.059,38.18 329.628,38.298 329.248,38.518 C328.8,37.774 327.989,37.296 327.091,37.296 C326.33,37.296 325.611,37.648 325.135,38.235 C323.559,37.903 322.099,39.145 322.098,40.708 C322.098,40.984 322.322,41.208 322.598,41.208 M261.808,79.283 C262.084,79.283 262.308,79.059 262.308,78.783 C262.308,77.766 263.312,76.961 264.374,77.359 C264.603,77.443 264.861,77.353 264.983,77.141 C265.262,76.659 265.754,76.371 266.301,76.371 C266.99,76.371 267.595,76.841 267.772,77.513 C267.818,77.687 267.955,77.824 268.13,77.87 C268.306,77.915 268.492,77.862 268.617,77.731 C268.91,77.425 269.301,77.256 269.719,77.256 C270.562,77.256 271.247,77.941 271.247,78.783 C271.247,79.059 271.471,79.283 271.747,79.283 C272.024,79.283 272.247,79.059 272.247,78.783 C272.247,77.389 271.113,76.256 269.719,76.256 C269.268,76.256 268.837,76.373 268.458,76.594 C268.01,75.849 267.199,75.371 266.301,75.371 C265.54,75.371 264.821,75.723 264.345,76.31 C262.77,75.98 261.308,77.221 261.308,78.783 C261.308,79.059 261.531,79.283 261.808,79.283 M149.03,69.412 C148.582,68.668 147.771,68.189 146.873,68.189 C146.112,68.189 145.393,68.542 144.917,69.129 C143.341,68.798 141.88,70.039 141.88,71.601 C141.88,71.878 142.103,72.101 142.38,72.101 C142.656,72.101 142.88,71.878 142.88,71.601 C142.879,70.585 143.883,69.779 144.946,70.178 C145.176,70.262 145.433,70.171 145.556,69.96 C145.834,69.477 146.327,69.189 146.873,69.189 C147.562,69.189 148.167,69.659 148.344,70.332 C148.39,70.508 148.527,70.644 148.703,70.689 C148.878,70.735 149.065,70.68 149.19,70.55 C149.482,70.243 149.873,70.074 150.291,70.074 C151.134,70.074 151.82,70.76 151.82,71.601 C151.82,71.878 152.043,72.101 152.32,72.101 C152.596,72.101 152.82,71.878 152.82,71.601 C152.82,70.208 151.685,69.074 150.291,69.074 C149.841,69.074 149.41,69.191 149.03,69.412 M130.1,5.378 C130.116,5.378 130.132,5.377 130.149,5.376 C160.142,2.471 192.284,1 225.681,1 C225.957,1 226.181,0.776 226.181,0.5 C226.181,0.223 225.957,-1.13686838e-13 225.681,-1.13686838e-13 C192.252,-1.13686838e-13 160.078,1.473 130.052,4.38 C129.777,4.407 129.576,4.651 129.603,4.926 C129.628,5.184 129.846,5.378 130.1,5.378 M239.764,16.89 C240.04,16.89 240.264,16.667 240.264,16.39 C240.264,15.374 241.268,14.569 242.331,14.967 C242.561,15.051 242.818,14.961 242.94,14.749 C243.218,14.266 243.711,13.978 244.257,13.978 C244.947,13.978 245.552,14.448 245.728,15.12 C245.774,15.295 245.911,15.431 246.087,15.477 C246.262,15.521 246.448,15.469 246.574,15.339 C246.866,15.032 247.258,14.863 247.676,14.863 C248.518,14.863 249.204,15.549 249.204,16.39 C249.204,16.667 249.428,16.89 249.704,16.89 C249.98,16.89 250.204,16.667 250.204,16.39 C250.204,14.997 249.07,13.863 247.676,13.863 C247.225,13.863 246.794,13.98 246.415,14.201 C245.967,13.457 245.156,12.978 244.257,12.978 C243.496,12.978 242.777,13.331 242.301,13.918 C240.73,13.587 239.264,14.828 239.264,16.39 C239.264,16.667 239.488,16.89 239.764,16.89" id="Fill-15" fill="#000"/></g></g></g><g id="Working Stuff" transform="translate(180.822000, 90.172000) scale(1 1)"><g id="Working Stuff/Windows" stroke="none" stroke-width="1" fill="none" fill-rule="evenodd"><g id="Working-Windows" transform="translate(8.000000, 24.000000)"><polygon id="Fill-1" fill="#F1EFEF" points="59 59 210 59 210 1 59 1"/><path d="M210.224867,0.823099559 C210.47268,0.823099559 210.673803,1.02440352 210.673803,1.27243877 L210.673803,59.0296018 C210.673803,59.277637 210.47268,59.478941 210.224867,59.478941 L59.2377562,59.478941 C58.9899434,59.478941 58.78882,59.277637 58.78882,59.0296018 C58.78882,58.7815665 58.9899434,58.5802626 59.2377562,58.5802626 L209.775931,58.5802626 L209.775931,1.27243877 C209.775931,1.02440352 209.977054,0.823099559 210.224867,0.823099559 Z M120.630945,9.72639648 C120.878757,9.72639648 121.079881,9.92680176 121.079881,10.1757357 L121.079881,51.1410925 C121.079881,51.3891278 120.878757,51.5904317 120.630945,51.5904317 L69.0005915,51.5904317 C68.7518809,51.5904317 68.5516553,51.3891278 68.5516553,51.1410925 L68.5516553,10.1757357 C68.5516553,9.92680176 68.7518809,9.72639648 69.0005915,9.72639648 L120.630945,9.72639648 Z M120.182009,10.6250749 L69.4495277,10.6250749 L69.4495277,50.6917533 L120.182009,50.6917533 L120.182009,10.6250749 Z" id="Combined-Shape" fill="#000"/><polygon id="Fill-8" fill="#F1EFEF" points="0.44893617 156.955084 156.641911 156.955084 156.641911 53.6007753 0.44893617 53.6007753"/><polygon id="Fill-9" fill="#F1EFEF" points="108.915506 204 206.536677 204 206.536677 117.437498 108.915506 117.437498"/><path d="M206.536677,169.115101 L206.536677,204 L108.915506,204 L108.915506,169.115101 L206.536677,169.115101 Z M156.641911,44.4818855 L156.641911,53.6007753 L0.44893617,53.6007753 L0.44893617,44.4818855 L156.641911,44.4818855 Z" id="Interface-color" fill="#94B1EB"/><path d="M186.362383,180.824881 C186.610196,180.824881 186.811319,181.025286 186.811319,181.27422 L186.811319,194.012088 C186.811319,194.260123 186.610196,194.461427 186.362383,194.461427 L129.090698,194.461427 C128.842885,194.461427 128.641762,194.260123 128.641762,194.012088 L128.641762,181.27422 C128.641762,181.025286 128.842885,180.824881 129.090698,180.824881 L186.362383,180.824881 Z M185.912549,181.723559 L129.539634,181.723559 L129.539634,193.562749 L185.912549,193.562749 L185.912549,181.723559 Z M206.537305,116.988428 C206.785118,116.988428 206.986241,117.188833 206.986241,117.437767 C206.986241,117.685803 206.785118,117.887107 206.537305,117.887107 L109.365071,117.887107 L109.365071,191.550878 C109.365071,191.798913 109.163948,192.000217 108.916135,192.000217 C108.668322,192.000217 108.467199,191.798913 108.467199,191.550878 L108.467199,117.437767 C108.467199,117.188833 108.668322,116.988428 108.916135,116.988428 L206.537305,116.988428 Z M206.536946,168.665313 C206.784759,168.665313 206.985882,168.866617 206.985882,169.114652 C206.985882,169.362687 206.784759,169.563991 206.536946,169.563991 L128.150895,169.563991 C127.903082,169.563991 127.701959,169.362687 127.701959,169.114652 C127.701959,168.866617 127.903082,168.665313 128.150895,168.665313 L206.536946,168.665313 Z M199.305751,157.519184 C199.553564,157.519184 199.754688,157.720488 199.754688,157.968523 C199.754688,158.216559 199.553564,158.417863 199.305751,158.417863 L142.613194,158.417863 C142.365381,158.417863 142.164258,158.216559 142.164258,157.968523 C142.164258,157.720488 142.365381,157.519184 142.613194,157.519184 L199.305751,157.519184 Z M124.680618,133.200407 C130.669427,133.200407 135.54218,138.077535 135.54218,144.072619 C135.54218,150.066804 130.669427,154.943931 124.680618,154.943931 C118.690912,154.943931 113.818159,150.066804 113.818159,144.072619 C113.818159,138.077535 118.690912,133.200407 124.680618,133.200407 Z M124.680618,134.099085 C119.186537,134.099085 114.716031,138.573605 114.716031,144.072619 C114.716031,149.571632 119.186537,154.045253 124.680618,154.045253 C130.174699,154.045253 134.644308,149.571632 134.644308,144.072619 C134.644308,138.573605 130.174699,134.099085 124.680618,134.099085 Z M199.305751,145.359796 C199.553564,145.359796 199.754688,145.5611 199.754688,145.809135 C199.754688,146.05717 199.553564,146.258474 199.305751,146.258474 L142.613194,146.258474 C142.365381,146.258474 142.164258,146.05717 142.164258,145.809135 C142.164258,145.5611 142.365381,145.359796 142.613194,145.359796 L199.305751,145.359796 Z M199.305751,133.200407 C199.553564,133.200407 199.754688,133.401711 199.754688,133.649746 C199.754688,133.897781 199.553564,134.099085 199.305751,134.099085 L142.613194,134.099085 C142.365381,134.099085 142.164258,133.897781 142.164258,133.649746 C142.164258,133.401711 142.365381,133.200407 142.613194,133.200407 L199.305751,133.200407 Z" id="Combined-Shape" fill="#000"/><path d="M72.9045404,65.7455154 C73.1532511,65.7455154 73.3534766,65.9468194 73.3534766,66.1948546 L73.3534766,145.808775 C73.3534766,146.057709 73.1532511,146.258115 72.9045404,146.258115 L9.84965957,146.258115 C9.60094894,146.258115 9.4007234,146.057709 9.4007234,145.808775 L9.4007234,66.1948546 C9.4007234,65.9468194 9.60094894,65.7455154 9.84965957,65.7455154 L72.9045404,65.7455154 Z M72.4565021,66.6441938 L10.2985957,66.6441938 L10.2985957,145.359436 L72.4565021,145.359436 L72.4565021,66.6441938 Z M147.530751,90.9326855 C147.778564,90.9326855 147.979687,91.1339894 147.979687,91.3820247 C147.979687,91.6300599 147.778564,91.8313639 147.530751,91.8313639 L81.5829255,91.8313639 C81.3342149,91.8313639 81.1339894,91.6300599 81.1339894,91.3820247 C81.1339894,91.1339894 81.3342149,90.9326855 81.5829255,90.9326855 L147.530751,90.9326855 Z M147.530751,82.537052 C147.778564,82.537052 147.979687,82.7383559 147.979687,82.9863912 C147.979687,83.2344264 147.778564,83.4357304 147.530751,83.4357304 L81.5829255,83.4357304 C81.3342149,83.4357304 81.1339894,83.2344264 81.1339894,82.9863912 C81.1339894,82.7383559 81.3342149,82.537052 81.5829255,82.537052 L147.530751,82.537052 Z M147.530751,74.1413286 C147.778564,74.1413286 147.979687,74.3426326 147.979687,74.5906678 C147.979687,74.8387031 147.778564,75.040007 147.530751,75.040007 L81.5829255,75.040007 C81.3342149,75.040007 81.1339894,74.8387031 81.1339894,74.5906678 C81.1339894,74.3426326 81.3342149,74.1413286 81.5829255,74.1413286 L147.530751,74.1413286 Z M147.530751,65.7456053 C147.778564,65.7456053 147.979687,65.9469093 147.979687,66.1949445 C147.979687,66.4429797 147.778564,66.6442837 147.530751,66.6442837 L81.5829255,66.6442837 C81.3342149,66.6442837 81.1339894,66.4429797 81.1339894,66.1949445 C81.1339894,65.9469093 81.3342149,65.7456053 81.5829255,65.7456053 L147.530751,65.7456053 Z M156.641911,44.0329057 C156.889723,44.0329057 157.090847,44.233311 157.090847,44.4822449 L157.090847,53.6011348 C157.090847,53.84917 156.889723,54.050474 156.641911,54.050474 L0.44893617,54.050474 C0.201123404,54.050474 8.52651283e-14,53.84917 8.52651283e-14,53.6011348 C8.52651283e-14,53.3530996 0.201123404,53.1517956 0.44893617,53.1517956 L156.192974,53.1517956 L156.192974,44.4822449 C156.192974,44.233311 156.394098,44.0329057 156.641911,44.0329057 Z M20.8325238,46.3485304 C22.2754047,46.3485304 23.4507196,47.5240018 23.4507196,48.9690767 C23.4507196,50.4141515 22.2754047,51.5905216 20.8325238,51.5905216 C19.389643,51.5905216 18.2143281,50.4141515 18.2143281,48.9690767 C18.2143281,47.5240018 19.389643,46.3485304 20.8325238,46.3485304 Z M30.0883306,46.3485304 C31.5312115,46.3485304 32.7065264,47.5240018 32.7065264,48.9690767 C32.7065264,50.4141515 31.5312115,51.5905216 30.0883306,51.5905216 C28.6454498,51.5905216 27.4701349,50.4141515 27.4701349,48.9690767 C27.4701349,47.5240018 28.6454498,46.3485304 30.0883306,46.3485304 Z M39.3441374,46.3485304 C40.7870183,46.3485304 41.9623332,47.5240018 41.9623332,48.9690767 C41.9623332,50.4141515 40.7870183,51.5905216 39.3441374,51.5905216 C37.9012566,51.5905216 36.7259417,50.4141515 36.7259417,48.9690767 C36.7259417,47.5240018 37.9012566,46.3485304 39.3441374,46.3485304 Z M20.8325238,47.2472088 C19.8834728,47.2472088 19.1122004,48.0191736 19.1122004,48.9690767 C19.1122004,49.9189797 19.8834728,50.6918432 20.8325238,50.6918432 C21.7815749,50.6918432 22.5528472,49.9189797 22.5528472,48.9690767 C22.5528472,48.0191736 21.7815749,47.2472088 20.8325238,47.2472088 Z M30.0883306,47.2472088 C29.1392796,47.2472088 28.3680072,48.0191736 28.3680072,48.9690767 C28.3680072,49.9189797 29.1392796,50.6918432 30.0883306,50.6918432 C31.0373817,50.6918432 31.808654,49.9189797 31.808654,48.9690767 C31.808654,48.0191736 31.0373817,47.2472088 30.0883306,47.2472088 Z M39.3441374,47.2472088 C38.3950864,47.2472088 37.623814,48.0191736 37.623814,48.9690767 C37.623814,49.9189797 38.3950864,50.6918432 39.3441374,50.6918432 C40.2931885,50.6918432 41.0644609,49.9189797 41.0644609,48.9690767 C41.0644609,48.0191736 40.2931885,47.2472088 39.3441374,47.2472088 Z" id="Combined-Shape" fill="#000"/><path d="M176.367268,83.5993797 L190.255557,87.7144282 C191.157021,87.9813357 191.446136,89.1172652 190.780813,89.7831859 L187.051949,93.5136993 L193.054764,99.5210855 C193.756003,100.222953 193.756003,101.36068 193.054764,102.062548 C192.703696,102.413931 192.244883,102.589174 191.785173,102.589174 C191.325462,102.589174 190.866649,102.413931 190.515581,102.062548 L184.512949,96.0546993 L181.002983,99.5688952 C180.338557,100.234816 179.203647,99.9463401 178.936979,99.044067 L174.825621,85.1424106 C174.546383,84.1987982 175.423604,83.3198907 176.367268,83.5993797 Z" id="Combined-Shape" fill="#000"/></g></g></g><g id="Desk" transform="translate(161.000000, 285.770000)"><polygon fill="#83BB9E" points="268.0898 54.7969 1.3518 54.7969 1.3518 121.4819 84.7078 121.4819 84.7078 73.6429 268.0898 73.6429"/><path d="M268.0898,54.2969 C267.8138,54.2969 267.5898,54.5209 267.5898,54.7969 L267.5898,73.3839 L1.8518,73.3839 L1.8518,54.7969 C1.8518,54.5209 1.6288,54.2969 1.3518,54.2969 C1.0758,54.2969 0.8518,54.5209 0.8518,54.7969 L0.8518,243.0109 C0.8518,243.2869 1.0758,243.5109 1.3518,243.5109 C1.6288,243.5109 1.8518,243.2869 1.8518,243.0109 L1.8518,74.3839 L267.5898,74.3839 L267.5898,243.0109 C267.5898,243.2869 267.8138,243.5109 268.0898,243.5109 C268.3658,243.5109 268.5898,243.2869 268.5898,243.0109 L268.5898,54.7969 C268.5898,54.5209 268.3658,54.2969 268.0898,54.2969 L268.0898,54.2969 Z M26.2548,84.7389 L60.2878,84.7389 L60.2878,83.0819 L26.2548,83.0819 L26.2548,84.7389 Z M60.7878,82.0819 L25.7548,82.0819 C25.4788,82.0819 25.2548,82.3059 25.2548,82.5819 L25.2548,85.2389 C25.2548,85.5159 25.4788,85.7389 25.7548,85.7389 L60.7878,85.7389 C61.0648,85.7389 61.2878,85.5159 61.2878,85.2389 L61.2878,82.5819 C61.2878,82.3059 61.0648,82.0819 60.7878,82.0819 L60.7878,82.0819 Z" id="Fill-44" fill="#000"/><polygon id="Fill-45" fill="#E2A2B5" points="6.4996 54.839 19.9046 54.839 19.9046 0.23 6.4996 0.23"/><polygon id="Fill-46" fill="#94B1EB" points="19.9046 54.839 33.3096 54.839 33.3096 12.338 19.9046 12.338"/><path d="M33.31,11.8377 C33.033,11.8377 32.81,12.0617 32.81,12.3377 L32.81,54.3387 L20.405,54.3387 L20.405,20.7897 C20.405,20.5137 20.181,20.2897 19.905,20.2897 C19.628,20.2897 19.405,20.5137 19.405,20.7897 L19.405,54.3387 L6.5,54.3387 C6.224,54.3387 6,54.5627 6,54.8387 C6,55.1157 6.224,55.3387 6.5,55.3387 L33.31,55.3387 C33.586,55.3387 33.81,55.1157 33.81,54.8387 L33.81,12.3377 C33.81,12.0617 33.586,11.8377 33.31,11.8377" id="Path" fill="#000"/></g><g id="Chair" transform="translate(443.271900, 271.524000)"><path d="M131.249,71.057 C129.285,74.494 126.985,76.475 124.529,76.475 C117.344,76.475 111.499,59.546 111.499,38.737 C111.499,17.929 117.344,1 124.529,1 C131.713,1 137.559,17.929 137.559,38.737 C137.559,52.194 135.113,64.02 131.442,70.703 C131.331,70.788 131.259,70.913 131.249,71.057 Z M124.529,0 C116.662,0 110.499,17.015 110.499,38.737 C110.499,60.46 116.662,77.475 124.529,77.475 C127.021,77.475 129.341,75.764 131.349,72.739 C132.51,91.369 129.258,117.324 108.229,138.353 C108.034,138.549 108.034,138.865 108.229,139.06 C108.327,139.158 108.455,139.207 108.583,139.207 C108.711,139.207 108.838,139.158 108.936,139.06 C130.769,117.227 133.677,90.177 132.249,71.257 C136.075,64.408 138.559,52.524 138.559,38.737 C138.559,17.015 132.396,0 124.529,0 Z M109.083,136.821 C109.083,136.545 108.859,136.321 108.583,136.321 L0.5,136.321 C0.223,136.321 -1.27897692e-12,136.545 -1.27897692e-12,136.821 L-1.27897692e-12,150.593 C-1.27897692e-12,150.869 0.223,151.093 0.5,151.093 C0.776,151.093 1,150.869 1,150.593 L1,137.321 L108.583,137.321 C108.859,137.321 109.083,137.098 109.083,136.821 M86.426,241.555184 L57.378,222.819344 L57.378,140.49861 C57.378,140.232684 57.154,140.018598 56.878,140.018598 C56.601,140.018598 56.378,140.232684 56.378,140.49861 L56.378,222.819344 L27.159,241.664626 C26.239,241.304617 25.235,241.103012 24.18,241.103012 C19.821,241.103012 16.288,244.495739 16.288,248.679526 C16.288,252.865233 19.821,256.257 24.18,256.257 C28.539,256.257 32.073,252.865233 32.073,248.679526 C32.073,245.901215 30.509,243.478113 28.186,242.159999 L56.378,223.976174 L56.378,241.127013 C52.253,241.376619 48.985,244.657983 48.985,248.679526 C48.985,252.865233 52.519,256.257 56.878,256.257 C61.237,256.257 64.77,252.865233 64.77,248.679526 C64.77,244.657023 61.503,241.375659 57.378,241.127013 L57.378,223.976174 L85.341,242.012155 C82.876,243.294748 81.2,245.798492 81.2,248.679526 C81.2,252.865233 84.734,256.257 89.092,256.257 C93.452,256.257 96.985,252.865233 96.985,248.679526 C96.985,244.495739 93.452,241.103012 89.092,241.103012 C88.156,241.103012 87.26,241.267176 86.426,241.555184 Z" id="Fill-161" fill="#000"/><polygon fill="#94B1EB" points="0.4991 151.593 108.5821 151.593 108.5821 137.822 0.4991 137.822"/></g><g transform="translate(481.908400, 153.500000) scale(-1, 1) translate(-481.908400, -153.500000) translate(216.408400, -222.000000) scale(1 1)" id="Master/Character/Sitting on Chair"><defs><polygon id="mastercharactersitting-on-chair-path-1" points="0 0.0003 46.889 0.0003 46.889 52.9562 0 52.9562"/></defs><g id="Master/Character/Sitting on Chair" stroke="none" stroke-width="1" fill="none" fill-rule="evenodd"><g id="Lower Body/Sitting on Chair" transform="translate(71.000000, 393.000000) scale(1 1)"><g id="Lower Body/Sitting on Chair/Long Pants Orange" stroke="none" stroke-width="1" fill="none" fill-rule="evenodd"><g id="Group" transform="translate(136.000237, 172.000500)"><path d="M171.995463,183.4617 C165.998463,179.7867 138.348463,169.5077 137.720463,161.1367 C136.744463,148.1447 136.777463,127.3727 136.950463,112.4327 C128.895463,113.2817 119.621463,114.1667 109.759463,114.9307 L120.922463,161.3367 C121.462463,165.5237 122.189463,165.9247 117.637463,175.4227 C116.646463,177.4877 116.446463,179.1507 116.715463,180.4927 C106.534463,175.7087 88.8334635,167.8157 88.3324635,161.1367 C87.3564635,148.1447 87.3904635,127.3727 87.5624635,112.4327 C79.5074635,113.2817 70.2344635,114.1667 60.3714635,114.9307 L71.5344635,161.3367 C72.0744635,165.5237 72.8014635,165.9247 68.2494635,175.4227 C63.9354635,184.4197 74.4884635,185.8437 74.4884635,185.8437 L121.891463,185.962706 C122.237463,185.9637 122.549463,185.8297 122.788463,185.6167 C123.441463,185.7837 123.875463,185.8437 123.875463,185.8437 L171.278463,185.962706 C172.026463,185.9647 172.632463,185.3587 172.632463,184.6117 C172.632463,184.1417 172.396463,183.7067 171.995463,183.4617" id="Skin" fill="#c3986a"/><path d="M171.995463,183.4617 C170.256463,182.3967 153.927463,173.7117 149.204463,172.0627 C145.635463,179.7677 122.364463,176.1377 120.171463,169.7407 C120.142463,169.8117 117.416463,175.3697 117.388463,175.4407 C116.625463,177.3807 116.470463,178.9597 116.692463,180.2497 C111.001463,177.2507 102.913463,173.1447 99.8174635,172.0627 C96.2474635,179.7677 72.9764635,176.1377 70.7834635,169.7407 C70.7554635,169.8117 68.0284635,175.3697 68.0004635,175.4407 C64.3504635,184.7277 74.4884635,185.8437 74.4884635,185.8437 L121.891463,185.962706 C122.227463,185.9637 122.532463,185.8367 122.769463,185.6337 C123.432463,185.7937 123.875463,185.8437 123.875463,185.8437 L171.279463,185.962706 C172.026463,185.9647 172.632463,185.3587 172.632463,184.6117 C172.632463,184.1417 172.396463,183.7067 171.995463,183.4617" id="Shoes" fill="#53627B"/><path d="M125.389783,162.106314 L141.36312,160.57927 C143.10512,160.31527 144.29312,158.67527 143.99912,156.93627 L135.628463,41.5715 C134.075463,30.1775 124.243463,21.6165 112.606463,21.8305 L96.2224635,22.1345 L94.3504635,0.4995 L6.65046348,0.4995 C6.65046348,0.4995 -3.29353652,37.0775 1.13746348,49.8745 C5.12746348,61.4015 13.5404635,69.4065 51.7264635,66.2475 L66.4175326,158.956314 C66.4145326,160.781314 67.9575326,162.227314 69.7795326,162.106314 L91.8164635,160.57927 C93.6434635,160.45727 94.9814635,158.81027 94.7284635,156.99727 L91.8164635,64.0445 L96.9244635,64.2575 L116.316084,160.52827 C116.518084,162.30427 118.153084,163.55727 119.920084,163.28927" id="Pants" fill="#F0BE91"/><path d="M94.7304635,53.759 L100.071214,82.8 C100.104214,83.052 100.814214,85.7823348 101.062214,85.7823348 C101.083214,85.7823348 100.609214,83.235 100.631214,83.232 C100.905214,83.196 101.098214,82.945 101.062214,82.671 L95.7224635,53.63 C95.6864635,53.356 95.4324635,53.157 95.1614635,53.198 C94.8874635,53.234 94.6944635,53.485 94.7304635,53.759 Z M122.869463,183.035 C121.104463,181.955 104.807463,173.275 99.9824635,171.591 C99.9594635,171.583 99.9364635,171.586 99.9134635,171.581 C99.8784635,171.574 99.8444635,171.565 99.8094635,171.566 C99.7764635,171.566 99.7464635,171.575 99.7144635,171.582 C99.6834635,171.588 99.6544635,171.593 99.6244635,171.605 C99.5944635,171.618 99.5684635,171.637 99.5404635,171.656 C99.5154635,171.674 99.4894635,171.689 99.4674635,171.712 C99.4434635,171.735 99.4264635,171.764 99.4074635,171.793 C99.3934635,171.814 99.3744635,171.829 99.3634635,171.852 C98.0444635,174.701 93.4214635,176.198 86.9984635,175.872 C79.3724635,175.477 72.3104635,172.654 71.2564635,169.579 C71.1894635,169.386 71.0124635,169.255 70.8074635,169.244 C70.5944635,169.248 70.4134635,169.35 70.3274635,169.537 C70.2824635,169.634 69.6384635,170.95 68.9814635,172.291 C67.6224635,175.07 67.5524635,175.216 67.5354635,175.257 C67.4354635,175.509 67.5564635,175.792 67.8054635,175.898 C68.0544635,176.006 68.3434635,175.891 68.4574635,175.644 C68.5044635,175.542 69.1984635,174.124 69.8804635,172.731 C70.3014635,171.87 70.5924635,171.276 70.7924635,170.866 C73.0214635,174.236 80.4204635,176.533 86.9464635,176.871 C87.5384635,176.901 88.1164635,176.917 88.6804635,176.917 C94.3454635,176.917 98.4874635,175.38 100.051463,172.68 C105.088463,174.592 120.524463,182.772 122.347463,183.888 C122.596463,184.041 122.744463,184.311 122.744463,184.612 C122.744463,184.888 122.968463,185.112 123.244463,185.112 C123.521463,185.112 123.744463,184.888 123.744463,184.612 C123.744463,183.96 123.417463,183.371 122.869463,183.035 L122.869463,183.035 Z M90.8114635,64.078 C90.8114635,64.08 90.8124635,64.082 90.8124635,64.083 L93.2942131,104.490448 C93.3162131,104.751448 93.5782131,105.835665 93.8352131,105.835665 C93.8492131,105.835665 94.2772131,105.835665 94.2912131,105.835665 C94.5662131,105.81222 94.3142131,104.680448 94.2912131,104.404448 L91.8064635,63.981 C91.8064635,63.979 91.8054635,63.978 91.8054635,63.976 C91.8044635,63.974 91.8054635,63.972 91.8054635,63.969 L88.9314635,37.684 C87.8654635,27.943 79.6754635,20.405 69.8814635,20.148 L37.2644635,19.295 C37.0354635,19.302 36.7584635,19.506 36.7501132,19.781 C36.7444635,20.057 36.9614635,20.287 37.2374635,20.295 L69.8544635,21.148 C79.1514635,21.391 86.9254635,28.547 87.9364635,37.793 L90.8114635,64.078 Z M95.6644635,21.479 L85.7364635,21.637 C85.4594635,21.641 85.2394635,21.869 85.2444635,22.145 C85.2484635,22.419 85.4714635,22.637 85.7444635,22.637 L85.7514635,22.637 L95.8724635,22.476 C95.9704635,22.577 96.1014635,22.642 96.2324635,22.635 L112.615463,22.332 C112.756463,22.329 112.894463,22.328 113.034463,22.328 C124.656463,22.328 134.396463,31.304 135.298463,42.938 C135.319463,43.2 135.537463,43.399 135.796463,43.399 C135.809463,43.399 135.822463,43.399 135.835463,43.398 C136.111463,43.377 136.317463,43.136 136.295463,42.861 C135.341463,30.559 124.926463,21.098 112.597463,21.332 L101.302463,21.541 C101.204463,21.447 101.077463,21.39 100.957463,21.395 L96.6664635,21.464 L94.8494635,0.457 C94.8264635,0.198 94.6104635,-7.10542736e-14 94.3504635,-7.10542736e-14 L6.64946348,-7.10542736e-14 C6.37346348,-7.10542736e-14 6.14946348,0.223 6.14946348,0.5 C6.14946348,0.776 6.37346348,1 6.64946348,1 L93.8924635,1 L95.6644635,21.479 Z M149.415463,171.608 C149.166463,171.492 148.867463,171.601 148.751463,171.852 C147.431463,174.701 142.808463,176.198 136.386463,175.872 C128.760463,175.477 121.698463,172.654 120.643463,169.579 C120.577463,169.386 120.399463,169.255 120.195463,169.244 C119.981463,169.248 119.801463,169.35 119.715463,169.537 C119.670463,169.634 119.025463,170.95 118.369463,172.291 C117.010463,175.07 116.939463,175.216 116.923463,175.257 C116.823463,175.509 116.943463,175.792 117.192463,175.898 C117.441463,176.006 117.730463,175.891 117.845463,175.644 C117.891463,175.542 118.586463,174.124 119.267463,172.731 C119.688463,171.87 119.979463,171.276 120.180463,170.866 C122.409463,174.236 129.807463,176.533 136.334463,176.871 C136.926463,176.901 137.504463,176.917 138.067463,176.917 C144.015463,176.917 148.290463,175.226 149.659463,172.272 C149.774463,172.022 149.666463,171.724 149.415463,171.608 L149.415463,171.608 Z M128.452463,164.623 C128.515463,164.353 128.348463,164.085 128.079463,164.021 C127.803463,163.961 127.541463,164.126 127.477463,164.394 L127.097463,166.023 C126.627463,168.039 127.219463,170.114 128.681463,171.576 C128.779463,171.674 128.907463,171.722 129.035463,171.722 C129.163463,171.722 129.291463,171.674 129.389463,171.576 C129.584463,171.381 129.584463,171.064 129.389463,170.869 C128.172463,169.653 127.680463,167.927 128.071463,166.251 L128.452463,164.623 Z M79.0644635,164.623 C79.1274635,164.353 78.9604635,164.085 78.6914635,164.021 C78.4154635,163.961 78.1534635,164.126 78.0904635,164.394 L77.7094635,166.023 C77.2394635,168.039 77.8314635,170.114 79.2944635,171.576 C79.3914635,171.674 79.5194635,171.722 79.6474635,171.722 C79.7754635,171.722 79.9034635,171.674 80.0014635,171.576 C80.1964635,171.381 80.1964635,171.064 80.0014635,170.869 C78.7844635,169.653 78.2924635,167.927 78.6834635,166.251 L79.0644635,164.623 Z" id="Fill-9" fill="#000"/></g></g></g><g id="Upper Body" transform="translate(8.000000, 265.000000) scale(1 1)"><g id="Upper Body/Hands Up" stroke="none" stroke-width="1" fill="none" fill-rule="evenodd"><path d="M368.8479,96.6689 C368.8479,96.6689 375.2719,81.3149 372.6869,80.1089 C370.1019,78.9039 364.5539,95.2019 364.5539,95.2019 C364.5539,95.2019 371.0639,76.1739 368.0479,74.4149 C365.8029,73.1059 362.3719,84.3739 360.7659,90.2179 C361.9359,85.4469 363.6149,77.1669 361.5179,75.9339 C358.5469,74.1839 352.2879,107.9999 351.2939,96.7619 C350.3009,85.5239 347.4419,86.1109 347.4419,86.1109 C344.1789,88.0909 347.0459,101.1169 348.2979,106.1579 C348.2979,106.1579 352.1489,130.9459 311.3719,166.7329 C311,168.491163 311.707214,170.945054 312.154214,172.534054 C312.515214,173.324054 322.41908,191.955293 326.99908,199.191293 C334.99708,190.919293 358.0929,154.3629 367.0319,110.6249 C370.1629,106.8109 378.7729,87.3819 376.8719,86.6229 C374.8439,85.8139 368.8479,96.6689 368.8479,96.6689 Z M150.0559,82.2559 C150.0559,82.2559 147.1969,81.6689 146.2039,92.9069 C145.2109,104.1449 138.9509,70.3289 135.9799,72.0789 C133.8829,73.3119 135.5619,81.5919 136.7319,86.3629 C135.1259,80.5189 131.6959,69.2509 129.4499,70.5609 C126.4339,72.3189 132.9439,91.3469 132.9439,91.3469 C132.9439,91.3469 127.3959,75.0489 124.8109,76.2539 C122.2259,77.4599 128.6499,92.8139 128.6499,92.8139 C128.6499,92.8139 122.6549,81.9589 120.6259,82.7679 C118.7249,83.5269 127.3349,102.9559 130.4669,106.7699 C139.4049,150.5079 157.250605,175.448594 165.247605,183.721594 C166.945605,182.365594 170.088041,181.738913 173.865104,178.319595 C179.607161,173.121397 183.880779,168.078539 186.1259,162.8769 C145.3499,127.0909 149.2009,102.3029 149.2009,102.3029 C150.4519,97.2619 153.3189,84.2359 150.0559,82.2559 Z M252.0439,217.267856 C254.3329,215.264856 264.9285,191.177 266.8035,187 L257.409112,182.432538 L257.409112,172.874538 L243.803112,172.874538 L243.469112,182.432538 L238.77491,185.337141 C241.01791,192.497141 246.379042,212.211788 250.512249,217.267856 L252.0439,217.267856 Z M209.7319,289.64001 L209.7319,304.5529 L291.613215,304.5529 L289.963995,286.943359 L289.231381,286.943359 C267.392031,293.201303 227.996861,293.016442 217.023776,290.808702 C214.813842,290.362991 212.330815,289.976896 209.7319,289.64001 Z" id="Skin" fill="#c3986a"/><path d="M190.2504,157.243792 C190.2504,157.243792 181.3784,172.335587 170.9204,179.537826 C160.4634,186.741146 152.2244,198.059723 152.2244,198.059723 C152.2244,198.059723 162.3654,212.8084 205.1444,230.645142 C205.1444,230.645142 201.9764,266.658499 178.5264,299.587037 C178.5264,299.587037 200.316308,304.5529 214.46805,304.5529 C228.619793,304.5529 287.082203,306 301,303.360256 L291.6544,232.359652 C291.6544,232.359652 324.6104,223.098703 332.2164,206.978635 C332.2164,206.978635 317.6394,182.625891 314.1534,174.393215 C310.6674,166.161622 306.2314,155.5282 306.2314,155.5282 C306.2314,155.5282 283.7324,185.025555 266.3034,186.398028 C266.3034,186.398028 254.5794,214.86711 252.0434,217.267856 C249.5084,219.668602 239.6854,184.683519 239.6854,184.683519 C239.6854,184.683519 207.9964,183.997282 190.2504,157.243792 Z" id="Fill" fill="#83BB9E"/><path d="M191.783038,276 C191.899123,276.063269 192.016208,276.122174 192.126289,276.203988 C192.464537,276.455972 226.107168,300.459972 299.563949,277.166111 C299.646009,277.13884 299.728069,277.134477 299.81113,277.115932 L299.81113,277.115932 L301,283.524635 C276.313926,291.327435 255.992048,294 239.760164,294 C207.510552,294 191.37674,283.483183 189,281.79674 C189.986722,279.847403 190.9124,277.913339 191.783038,276 Z M198.204984,261 C198.228919,261.009423 198.253851,261.012564 198.277786,261.023034 C198.766453,261.234526 247.733862,282.042434 297.462195,264.737759 C297.57788,264.697974 297.695559,264.680175 297.813238,264.656094 L297.813238,264.656094 L299,270.816592 C283.627937,276.115415 268.482257,278 254.734762,278 C222.245398,278 197.548775,267.504958 196,266.831742 C196.798821,264.840365 197.532818,262.894008 198.204984,261 Z M202.545612,244 C202.679926,244.036113 202.815242,244.067977 202.947551,244.125332 C203.444713,244.340945 253.147861,265.481678 294.376205,249.685608 C294.517536,249.631439 294.661873,249.601699 294.805208,249.57196 L294.805208,249.57196 L296,255.833245 C284.03103,260.347318 271.561892,262 259.738262,262 C230.029838,262 204.411973,251.608072 201,250.164631 C201.601405,247.959639 202.110595,245.899097 202.545612,244 Z M204.651163,231 C205.026834,231.016892 205.405511,231.103465 205.769161,231.277667 C206.212953,231.488821 250.616281,252.28748 291.217816,234.110297 C291.408156,234.025835 291.602503,233.962489 291.797852,233.920258 L291.797852,233.920258 L293,240.185194 C279.83448,245.967644 266.476616,248 254.233743,248 C228.790288,248 208.166443,239.267731 204,237.376848 C204.703256,233.418768 204.913632,231.1098 204.913632,231.1098 L204.913632,231.1098 Z M165.590704,183 C166.663972,184.307946 196.200406,219.547252 249.520111,221.453822 C265.028893,222.008383 287.610626,220.298488 307.124875,208.997707 C318.761472,202.258078 323.862254,195.188508 323.91236,195.11865 C324.140843,194.797306 324.419431,194.54152 324.722071,194.339471 C325.887535,196.348141 327.004897,198.253636 328,199.940962 C323.975493,204.995414 303.010177,228 254.886455,228 C253.06761,228 251.216698,227.967758 249.318686,227.90005 C192.728066,225.87526 162.473114,189.006663 161,187.166726 C162.421004,185.779251 163.959255,184.367056 165.590704,183 Z M315.976817,178 C316.834748,179.702709 317.870043,181.655563 319,183.723291 C296.492535,210.758351 258.154712,212.917334 256.51757,212.995706 C256.471734,212.997853 256.426894,213 256.382055,213 C255.882841,213 255.41651,212.853992 255,212.618877 C255.884834,210.859268 256.895219,208.720683 257.946457,206.421061 C265.546264,205.675992 296.975805,201.281801 315.170702,178.692463 C315.404864,178.401521 315.681873,178.177142 315.976817,178 Z M176.666484,174 C178.64657,176.115732 205.725859,204.198553 246.575199,206.411935 C247.410297,208.775045 248.236339,210.953707 249,212.725497 C248.630746,212.899096 248.226277,213 247.800679,213 C247.762446,213 247.725219,213 247.686985,212.99783 C202.194303,211.183725 173.422684,179.747197 172.219339,178.409403 C172.135829,178.316094 172.071436,178.21085 172,178.109946 C173.612845,176.875226 175.176388,175.477758 176.666484,174 Z M308.269476,162 C309.07638,163.923467 310.022749,166.172891 311,168.491163 C305.642555,177.49101 296.29741,184.954664 283.172766,190.693868 C272.875274,195.197019 264.131821,196.881666 263.764231,196.951591 C263.5899,196.983864 263.416565,197 263.245222,197 C262.803916,197 262.384525,196.883817 262,196.692331 C263.092807,194.149224 264.063084,191.855694 264.78631,190.132319 C272.201858,188.341171 297.746849,181.019517 306.891762,163.355463 C307.21552,162.729368 307.707632,162.27432 308.269476,162 Z M185.839618,164 C185.986599,164.123715 186.127539,164.260229 186.254386,164.415939 C186.54432,164.770021 208.749476,191.385883 241.076164,190.564669 C241.620798,192.366007 242.280197,194.504363 243,196.771767 C242.735233,196.864553 242.459393,196.933876 242.166438,196.945608 C241.281534,196.981869 240.40267,197 239.532867,197 C206.907184,197 184.938607,172.445705 182,168.977409 C183.447659,167.219798 184.743304,165.515513 185.839618,164 Z" id="Lines" fill="#F1EFEF"/><path d="M300.446677,301.423607 L290.426003,226.432911 C290.372104,226.116061 290.54458,225.809695 290.809175,225.745626 C291.074749,225.681557 291.332483,225.886577 291.387362,226.201098 L301.458014,301.4935 C301.490354,301.678717 301.443315,301.870924 301.334537,302.008381 C298.975185,304.982537 301.730246,301.859137 300.446677,303.060664 C298.398109,304.978294 298.975185,303.060664 300.446677,301.423607 Z" id="Fill-25" fill="#000"/><path d="M239.6854,184.9642 L239.6754,184.9642 C239.3554,184.9572 207.5314,184.0402 189.8444,159.4042 C189.6834,159.1802 189.7344,158.8682 189.9594,158.7072 C190.1834,158.5462 190.4964,158.5972 190.6574,158.8212 C208.0464,183.0432 239.3814,183.9582 239.6954,183.9642 C239.9714,183.9702 240.1904,184.1982 240.185484,184.4742 C240.1794,184.7472 239.9564,184.9642 239.6854,184.9642" id="Fill-27" fill="#000"/><path d="M266.3031,186.5481 C266.0431,186.5481 265.8241,186.3481 265.8051,186.0841 C265.7851,185.8091 265.9921,185.5691 266.2671,185.5491 C283.2861,184.3121 305.6221,157.4811 305.8451,157.2101 C306.0211,156.9971 306.3361,156.9661 306.5501,157.1431 C306.7621,157.3191 306.7931,157.6341 306.6171,157.8471 C306.5601,157.9151 300.8781,164.7691 293.1361,171.6861 C282.6961,181.0131 273.6801,186.0131 266.3401,186.5471 C266.3271,186.5481 266.3151,186.5481 266.3031,186.5481" id="Fill-29" fill="#000"/><path d="M204.2332,231.3636 C204.1982,231.3636 204.1632,231.3596 204.1272,231.3526 C203.8572,231.2946 203.6862,231.0286 203.7442,230.7586 C205.0902,224.5106 203.7542,216.7556 203.7402,216.6776 C203.6922,216.4056 203.8742,216.1466 204.1462,216.0986 C204.4162,216.0436 204.6772,216.2326 204.7252,216.5046 C204.7822,216.8296 206.1082,224.5326 204.7212,230.9686 C204.6712,231.2036 204.4632,231.3636 204.2332,231.3636" id="Fill-31" fill="#000"/><path d="M266.8035,221.4046 L266.8035,231.1716 C266.8035,234.6096 269.6005,237.4066 273.0385,237.4066 C276.4765,237.4066 279.2745,234.6096 279.2745,231.1716 L279.2745,221.4046 L266.8035,221.4046 Z M273.0385,238.4066 C269.0495,238.4066 265.8035,235.1606 265.8035,231.1716 L265.8035,220.9046 C265.8035,220.6286 266.0275,220.4046 266.3035,220.4046 L279.7745,220.4046 C280.0505,220.4046 280.2745,220.6286 280.2745,220.9046 L280.2745,231.1716 C280.2745,235.1606 277.0285,238.4066 273.0385,238.4066 L273.0385,238.4066 Z" id="Fill-33" fill="#000"/><path d="M131.1585,107.7562 C131.0625,107.7562 130.9655,107.7282 130.8795,107.6712 C128.2905,105.9242 119.6565,86.4442 120.0105,83.1502 C120.0735,82.5642 120.3565,82.3332 120.5825,82.2432 C120.8355,82.1412 121.1295,82.2652 121.2315,82.5222 C121.3245,82.7542 121.2305,83.0142 121.0225,83.1372 C120.2025,85.0512 129.0565,105.2352 131.4385,106.8412 C131.6675,106.9962 131.7275,107.3072 131.5735,107.5362 C131.4765,107.6792 131.3195,107.7562 131.1585,107.7562" id="Fill-35" fill="#000"/><path d="M128.7918,93.2532 C128.5968,93.2532 128.4108,93.1382 128.3308,92.9462 C126.7798,89.2402 121.9388,77.0472 124.7408,75.7402 C124.9908,75.6252 125.2888,75.7322 125.4058,75.9822 C125.5218,76.2322 125.4138,76.5302 125.1638,76.6472 C123.8778,77.2462 126.2408,85.3592 129.2528,92.5602 C129.3598,92.8152 129.2398,93.1072 128.9848,93.2142 C128.9218,93.2412 128.8558,93.2532 128.7918,93.2532" id="Fill-38" fill="#000"/><path d="M133.0858,91.7859 C132.8778,91.7859 132.6838,91.6559 132.6128,91.4479 C131.5038,88.2059 126.1328,71.9379 129.3398,70.0669 C129.5778,69.9299 129.8848,70.0089 130.0238,70.2469 C130.1628,70.4859 130.0818,70.7919 129.8438,70.9319 C128.0078,72.0019 130.9108,83.3839 133.5588,91.1239 C133.6478,91.3859 133.5088,91.6699 133.2478,91.7589 C133.1938,91.7769 133.1398,91.7859 133.0858,91.7859" id="Fill-40" fill="#000"/><path d="M137.763,90.1766 C137.546,90.1766 137.346,90.0346 137.283,89.8156 C136.494,87.0966 132.721,73.4386 135.868,71.5866 C136.106,71.4476 136.413,71.5266 136.553,71.7636 C136.692,72.0016 136.613,72.3086 136.375,72.4486 C134.557,73.5186 136.373,83.0856 138.243,89.5376 C138.32,89.8026 138.167,90.0796 137.902,90.1566 C137.856,90.1706 137.809,90.1766 137.763,90.1766" id="Fill-43" fill="#000"/><path d="M146.346,93.346 C146.331,93.346 146.317,93.346 146.302,93.344 C146.027,93.32 145.823,93.077 145.847,92.802 C146.497,85.452 147.969,82.915 149.089,82.081 C149.714,81.616 150.205,81.685 150.298,81.705 C150.568,81.761 150.742,82.025 150.687,82.295 C150.634,82.556 150.383,82.728 150.126,82.69 C150.033,82.695 147.719,82.986 146.844,92.89 C146.821,93.15 146.602,93.346 146.346,93.346" id="Fill-45" fill="#000"/><path d="M366.3393,111.6107 C366.1793,111.6107 366.0213,111.5337 365.9243,111.3907 C365.7703,111.1617 365.8303,110.8517 366.0593,110.6967 C368.4413,109.0887 377.2953,88.9057 376.4753,86.9927 C376.2673,86.8697 376.1733,86.6097 376.2663,86.3777 C376.3683,86.1207 376.6603,85.9957 376.9153,86.0977 C377.1413,86.1887 377.4243,86.4187 377.4873,87.0047 C377.8413,90.2987 369.2073,109.7787 366.6193,111.5257 C366.5333,111.5837 366.4363,111.6107 366.3393,111.6107 L366.3393,111.6107 Z" id="Fill-47" fill="#000"/><path d="M368.7064,97.1082 C368.6424,97.1082 368.5764,97.0962 368.5134,97.0692 C368.2584,96.9622 368.1384,96.6702 368.2454,96.4152 C371.2574,89.2142 373.6194,81.1012 372.3334,80.5022 C372.0834,80.3852 371.9754,80.0872 372.0924,79.8372 C372.2094,79.5872 372.5064,79.4812 372.7564,79.5952 C375.5594,80.9022 370.7184,93.0952 369.1674,96.8012 C369.0874,96.9932 368.9014,97.1082 368.7064,97.1082" id="Fill-49" fill="#000"/><path d="M364.4124,95.6409 C364.3584,95.6409 364.3044,95.6319 364.2504,95.6139 C363.9894,95.5249 363.8504,95.2409 363.9394,94.9789 C366.5874,87.2389 369.4904,75.8569 367.6544,74.7869 C367.4164,74.6469 367.3354,74.3409 367.4744,74.1019 C367.6144,73.8639 367.9204,73.7839 368.1584,73.9219 C371.3654,75.7929 365.9944,92.0609 364.8854,95.3029 C364.8144,95.5109 364.6204,95.6409 364.4124,95.6409" id="Fill-51" fill="#000"/><path d="M359.7352,94.0315 C359.6892,94.0315 359.6422,94.0255 359.5962,94.0115 C359.3312,93.9345 359.1782,93.6575 359.2552,93.3925 C361.1252,86.9405 362.9412,77.3735 361.1232,76.3025 C360.8852,76.1635 360.8062,75.8565 360.9462,75.6185 C361.0862,75.3815 361.3912,75.3015 361.6302,75.4415 C364.7772,77.2935 361.0042,90.9515 360.2152,93.6705 C360.1522,93.8895 359.9522,94.0315 359.7352,94.0315" id="Fill-53" fill="#000"/><path d="M351.1522,97.2015 C350.8962,97.2015 350.6772,97.0055 350.6542,96.7455 C349.7692,86.7295 347.4122,86.5445 347.3692,86.5445 L347.3692,86.5445 C347.1042,86.6045 346.8502,86.4235 346.7952,86.1525 C346.7392,85.8825 346.9292,85.6155 347.2002,85.5595 C347.2932,85.5395 347.7842,85.4705 348.4092,85.9355 C349.5292,86.7705 351.0012,89.3075 351.6512,96.6575 C351.6752,96.9325 351.4712,97.1755 351.1962,97.1995 C351.1812,97.2015 351.1672,97.2015 351.1522,97.2015" id="Fill-55" fill="#000"/></g></g><g id="Hair" transform="translate(104.000000, 285.000000) scale(1 1)"><g id="Hair/Short Textured Crop" stroke="none" stroke-width="1" fill="none" fill-rule="evenodd"><g id="Head" transform="translate(132.000000, 111.000000)"><path d="M44.1789,24.3663 C44.5879,35.6913 33.3599,45.0883 22.4569,45.0883 C11.5539,45.0883 0.4939,36.9643 0.0189,25.3903 C-0.4461,14.0673 7.7449,1.3583 15.9329,0.2613 C32.6079,-1.9747 43.6789,10.5083 44.1789,24.3663" id="Fill-1" fill="#000"/><path d="M22.4567,44.088 C12.4757,44.088 1.4787,36.559 1.0177,25.35 C0.5797,14.678 8.3147,2.291 16.0657,1.252 C17.3127,1.085 18.5577,1 19.7657,1 C34.4247,1 42.7697,13.058 43.1797,24.402 C43.3447,28.984 41.4627,33.553 37.8807,37.268 C33.7607,41.538 27.9947,44.088 22.4567,44.088" id="Fill-4" fill="#c3986a"/></g><path d="M141.7458,109.127 C140.8178,107.501 137.5758,107 137.5758,107 C138.7738,108.045 138.3048,109.842 137.6748,111.205 C132.8228,114.292 128.7368,119.901 128.1178,126.998 C126.3458,147.293 140.391673,151.494394 140.391673,151.494394 C140.391673,149.835124 138.6988,144.370665 138.6988,144.370665 C136.2828,143.887665 133.3838,141.15 135.1548,139.217 C136.9268,137.284 138.6988,140.345 138.6988,140.345 L139.6128,140.345 C137.7408,135.634 139.0208,126.492 139.0208,126.492 C141.5698,130.255 141.4458,131.857 141.4458,131.857 C143.2508,124.581 144.6638,123.523 144.6638,123.523 C163.5098,124.651 165.3498,117.314 165.3498,117.314 C165.3498,117.314 166.8208,119.769 168.1238,122.844 C169.9728,127.208 176.189747,133.544 176.189747,133.544 C176.189747,133.544 178.9628,120.912 165.5388,110.423 C160.6868,106.632 150.2968,105.696 141.7458,109.127 Z" id="Hair" fill="#e7b460"/><path d="M134.912283,138.748262 C136.051262,137.624854 137.308292,137.962168 138.393075,139.118896 C138.539236,139.27475 138.669037,139.430063 138.781103,139.57645 L138.854,139.674 L138.828121,139.59031 C138.474657,138.375531 138.257591,136.91999 138.157837,135.265944 L138.133525,134.809951 C138.037901,132.753706 138.117806,130.556541 138.309243,128.408266 L138.38208,127.649324 C138.394504,127.528809 138.407035,127.411388 138.419622,127.297218 L138.52563,126.42267 C138.589113,125.969262 139.178002,125.832534 139.434766,126.211586 C140.295793,127.48269 140.914869,128.593696 141.328297,129.552502 L141.454,129.858 L141.527568,129.597061 C142.091495,127.61262 142.644856,126.086893 143.177069,124.960378 L143.283227,124.74038 C143.749508,123.794727 144.117072,123.30774 144.364117,123.122762 C144.458814,123.051857 144.575584,123.016825 144.693673,123.023893 C153.335076,123.541112 159.025611,122.346141 162.35935,120.064819 C163.316428,119.409879 163.99473,118.715683 164.44414,118.028823 C164.703531,117.63238 164.828346,117.337807 164.864818,117.192374 C164.973167,116.760334 165.549763,116.674928 165.778701,117.057009 L165.987417,117.415709 L166.246713,117.875781 C166.337389,118.039003 166.432119,118.211875 166.530323,118.393754 C167.091098,119.432337 167.651767,120.552857 168.175416,121.714456 L168.3832,122.182249 L168.584182,122.648939 C168.981992,123.587848 169.61562,124.679529 170.449025,125.89024 C170.991447,126.678232 171.610354,127.504836 172.291276,128.358308 C173.222106,129.525018 174.220461,130.682815 175.218883,131.778319 L175.72321,132.326165 L176.367811,133.009054 C176.447312,133.091892 176.507525,133.153954 176.546637,133.193815 C176.740039,133.390921 176.737037,133.707489 176.539932,133.90089 C176.342826,134.094292 176.026258,134.09129 175.832857,133.894185 L175.458637,133.504855 C175.163117,133.193787 174.83405,132.840629 174.479786,132.451918 C173.467589,131.341299 172.455325,130.167373 171.509578,128.981966 C170.814796,128.111121 170.182028,127.266005 169.625314,126.45725 C168.756828,125.195575 168.091285,124.048908 167.663426,123.039079 C167.534793,122.735512 167.401425,122.430792 167.263767,122.125427 C166.853259,121.214805 166.419048,120.328976 165.980151,119.489471 L165.508781,118.608418 L165.405,118.422 L165.387956,118.453719 C164.966588,119.144485 164.260364,119.929787 163.180071,120.710139 L162.924092,120.890087 C159.461199,123.25979 153.729993,124.498249 145.194566,124.053504 L144.856,124.034 L144.818694,124.082418 C144.691816,124.248942 144.505863,124.542717 144.270628,125.002391 L144.180123,125.18262 C143.47402,126.614647 142.712751,128.826496 141.93109,131.977389 C141.791572,132.539791 140.995831,132.443701 140.947732,131.915976 L140.946365,131.784063 C140.944286,131.730525 140.936382,131.64903 140.918507,131.538602 C140.87863,131.292241 140.801294,130.990328 140.676618,130.630862 C140.421886,129.896416 140.010321,129.032793 139.413595,128.034813 L139.357,127.942 L139.305296,128.497026 C139.117546,130.603936 139.039196,132.758316 139.132445,134.763497 C139.234905,136.966728 139.540341,138.808671 140.077459,140.160359 C140.197036,140.461282 140.003772,140.785801 139.69864,140.837798 L139.6128,140.845 L138.6988,140.845 C138.520374,140.845 138.355469,140.749919 138.266077,140.595501 L138.163103,140.433725 C138.146696,140.409342 138.128689,140.383045 138.109137,140.355054 C137.977285,140.166298 137.82731,139.977471 137.663649,139.802955 C136.923217,139.013417 136.276207,138.825733 135.613189,139.463038 L135.519,139.559 L135.43641,139.658452 C134.410024,140.99707 136.26237,143.273133 138.610457,143.839272 L138.796819,143.880367 C138.976524,143.916293 139.122175,144.047651 139.176406,144.222704 L139.442896,145.108996 C139.642338,145.78536 139.841786,146.487809 140.028077,147.180437 L140.25465,148.045331 L140.407489,148.661252 C140.717909,149.947344 140.891673,150.915206 140.891673,151.494394 C140.891673,151.770537 140.667815,151.994394 140.391673,151.994394 C140.115531,151.994394 139.891673,151.770537 139.891673,151.494394 C139.891673,150.977174 139.69821,149.951089 139.360144,148.588823 L139.285506,148.291826 C139.215544,148.016757 139.14097,147.732306 139.062396,147.440169 C138.939713,146.984032 138.811121,146.52312 138.680558,146.06825 L138.305,144.793 L138.228059,144.773665 C135.331016,143.995639 133.01369,141.047613 134.688865,138.993328 L134.801247,138.863447 L134.912283,138.748262 Z" id="Hair" fill="#000" fill-rule="nonzero"/><path d="M138.2668,129.1887 C138.2378,129.4637 138.4368,129.7097 138.7118,129.7387 C138.7288,129.7407 138.7468,129.7417 138.7648,129.7417 C139.0168,129.7417 139.2338,129.5507 139.2608,129.2937 C139.3108,128.8247 139.3398,128.3797 139.3608,127.9507 C140.9658,130.6177 140.9478,131.8137 140.9478,131.8187 C140.9278,132.0777 141.1098,132.3087 141.3668,132.3497 C141.3928,132.3547 141.4198,132.3567 141.4468,132.3567 C141.6728,132.3567 141.8748,132.2037 141.9318,131.9767 C142.7838,128.5427 143.5448,126.5317 144.0918,125.3747 C144.1288,125.3007 144.1628,125.2287 144.1968,125.1557 C144.5098,124.5247 144.7428,124.1887 144.8658,124.0357 C145.3848,124.0647 145.8888,124.0857 146.3828,124.1027 C146.5778,124.1097 146.7668,124.1147 146.9578,124.1187 C147.2568,124.1267 147.5508,124.1317 147.8408,124.1347 C148.0468,124.1377 148.2538,124.1397 148.4558,124.1397 C148.7508,124.1397 149.0388,124.1357 149.3248,124.1317 C149.4868,124.1287 149.6538,124.1277 149.8128,124.1247 C150.2308,124.1147 150.6358,124.0977 151.0328,124.0787 C151.1748,124.0717 151.3118,124.0617 151.4518,124.0537 C151.7538,124.0357 152.0498,124.0157 152.3388,123.9927 C152.4438,123.9837 152.5488,123.9757 152.6518,123.9667 C161.0288,123.2377 164.1438,120.3777 165.1918,118.9487 C165.5718,118.4307 165.9038,117.7647 165.8408,117.3127 C165.8408,117.2747 165.8408,117.2387 165.8318,117.2027 C165.8288,117.1927 165.8328,117.1767 165.8288,117.1677 C165.8238,117.1537 165.8128,117.1437 165.8058,117.1297 C165.7478,116.9877 165.6338,116.8687 165.4718,116.8287 C165.2058,116.7627 164.9318,116.9237 164.8658,117.1917 C164.8518,117.2457 163.6748,121.3997 154.5828,122.7327 C154.3578,122.7647 154.1238,122.7947 153.8908,122.8237 C153.7848,122.8367 153.6818,122.8507 153.5748,122.8637 C153.2918,122.8957 153.0008,122.9247 152.7048,122.9527 C152.6298,122.9597 152.5558,122.9657 152.4798,122.9727 C152.1768,122.9997 151.8648,123.0217 151.5478,123.0427 C151.4618,123.0467 151.3758,123.0527 151.2898,123.0577 C150.9818,123.0757 150.6658,123.0897 150.3448,123.1027 C150.2268,123.1067 150.1078,123.1107 149.9878,123.1137 C149.6868,123.1227 149.3818,123.1297 149.0698,123.1337 C148.9008,123.1357 148.7278,123.1347 148.5558,123.1357 C148.2778,123.1357 147.9978,123.1367 147.7108,123.1337 C147.4558,123.1297 147.1918,123.1227 146.9298,123.1157 C146.7048,123.1107 146.4848,123.1067 146.2548,123.0977 C145.8058,123.0817 145.3448,123.0587 144.8738,123.0327 C145.3738,119.9337 143.5808,117.9597 143.5578,117.9357 C143.3678,117.7337 143.0518,117.7247 142.8508,117.9147 C142.6498,118.1037 142.6408,118.4197 142.8288,118.6217 C142.8518,118.6457 144.9908,120.9977 143.3428,124.6297 C143.2758,124.7637 143.2048,124.9097 143.1318,125.0677 C143.1138,125.1027 143.1008,125.1357 143.0808,125.1717 C143.0788,125.1757 143.0788,125.1807 143.0778,125.1847 C142.6188,126.1947 142.0648,127.6747 141.4558,129.8547 C141.0988,128.9637 140.4848,127.7617 139.4348,126.2117 C139.4178,126.1867 139.3938,126.1717 139.3728,126.1517 C139.2598,123.1137 138.4998,121.4547 138.4578,121.3657 C138.3398,121.1167 138.0428,121.0117 137.7928,121.1267 C137.5438,121.2447 137.4368,121.5427 137.5528,121.7927 C137.5648,121.8177 138.7658,124.4577 138.2668,129.1887" id="Combined-Shape" fill="#000"/></g></g><g id="Expression" transform="translate(201.000000, 388.000000) scale(1 1)"><g id="Expression/Happy" stroke="none" stroke-width="1" fill="none" fill-rule="evenodd"><path d="M65.5638,42.4847 C65.7318,42.7047 65.6888,43.0187 65.4678,43.1857 C63.3578,44.7897 61.4758,45.3127 59.9198,45.3127 C57.0168,45.3127 55.2448,43.4917 55.2178,43.4637 C55.0288,43.2627 55.0378,42.9477 55.2368,42.7577 C55.4378,42.5677 55.7538,42.5767 55.9438,42.7747 C56.0888,42.9257 59.5458,46.4277 64.8638,42.3897 C65.0828,42.2217 65.3978,42.2647 65.5638,42.4847 Z M61.1759,29.2677 C61.5959,29.7817 65.2429,34.3587 64.0529,36.8667 C63.5839,37.8557 62.4859,38.3567 60.7889,38.3567 C59.0919,38.3567 57.9939,37.8557 57.5249,36.8677 C56.3349,34.3597 59.9819,29.7817 60.4019,29.2677 C60.5909,29.0357 60.9859,29.0357 61.1759,29.2677 Z M60.7889,30.3977 C59.6359,31.9377 57.7339,34.9747 58.4289,36.4387 C58.7179,37.0477 59.5119,37.3567 60.7889,37.3567 C62.0659,37.3567 62.8599,37.0477 63.1489,36.4387 C63.8449,34.9747 61.9419,31.9377 60.7889,30.3977 Z M53.8972,27.8363 C54.5552,27.8363 55.0892,28.6193 55.0892,29.5843 C55.0892,30.5493 54.5552,31.3323 53.8972,31.3323 C53.2392,31.3323 52.7062,30.5493 52.7062,29.5843 C52.7062,28.6193 53.2392,27.8363 53.8972,27.8363 Z M67.769,27.8363 C68.428,27.8363 68.961,28.6193 68.961,29.5843 C68.961,30.5493 68.428,31.3323 67.769,31.3323 C67.112,31.3323 66.578,30.5493 66.578,29.5843 C66.578,28.6193 67.112,27.8363 67.769,27.8363 Z M55.0896,23.9998 C55.3656,23.9998 55.5896,24.2238 55.5896,24.4998 C55.5896,24.7758 55.3656,24.9998 55.0896,24.9998 C52.5666,24.9998 51.0876,26.4288 51.0726,26.4438 C50.9746,26.5398 50.8476,26.5878 50.7206,26.5878 C50.5916,26.5878 50.4636,26.5388 50.3666,26.4408 C50.1716,26.2448 50.1716,25.9298 50.3666,25.7348 C50.4376,25.6648 52.1356,23.9998 55.0896,23.9998 Z M66.5776,23.9998 C69.5316,23.9998 71.2296,25.6648 71.3006,25.7348 C71.4956,25.9298 71.4956,26.2448 71.3006,26.4408 C71.2036,26.5388 71.0746,26.5878 70.9466,26.5878 C70.8196,26.5878 70.6926,26.5398 70.5946,26.4438 C70.5806,26.4288 69.1006,24.9998 66.5776,24.9998 C66.3016,24.9998 66.0776,24.7758 66.0776,24.4998 C66.0776,24.2238 66.3016,23.9998 66.5776,23.9998 Z" id="Combined-Shape" fill="#000"/><path d="M51.4996066,33 C53.4327301,33 55,33.8954741 55,35 C55,36.1045259 53.4327301,37 51.4996066,37 C49.5664831,37 48,36.1045259 48,35 C48,33.8954741 49.5664831,33 51.4996066,33 Z M69.5,33 C71.4329063,33 73,33.8954741 73,35 C73,36.1045259 71.4329063,37 69.5,37 C67.5670937,37 66,36.1045259 66,35 C66,33.8954741 67.5670937,33 69.5,33 Z" id="Cheeks" fill="#E2A2B5"/></g></g><g id="Facial Hair" transform="translate(201.000000, 387.000000) scale(1 1)" fill="#000"><g id="Facial Hair/None" stroke="none" stroke-width="1" fill="none" fill-rule="evenodd" fill-opacity="0"/></g><g id="Accesories" transform="translate(104.500000, 286.000000) scale(1 1)"><g id="Accesories/None" stroke="none" stroke-width="1" fill="none" fill-rule="evenodd" fill-opacity="0"/></g></g></g><g id="Table top" transform="translate(152.000000, 185.000000) scale(1 1)"><g id="Table top/Tea Cup" stroke="none" stroke-width="1" fill="none" fill-rule="evenodd"><g id="Tea-Cup" transform="translate(72.000000, 116.000000)"><path d="M18.4248,39.6089 L15.4658,39.6089 C9.1788,39.6089 3.9128,34.8489 3.2808,28.5939 L0.3958,0.0699 L33.4958,0.0699 L30.6108,28.5939 C29.9778,34.8489 24.7118,39.6089 18.4248,39.6089" id="Cup" fill="#EC7068"/><path d="M31.5225,31.2446 C30.5605,31.2446 29.5285,31.1966 28.4185,31.1146 C28.0865,31.0896 27.8375,30.8016 27.8625,30.4706 C27.8865,30.1386 28.2005,29.8926 28.5065,29.9136 C36.9305,30.5396 40.0665,29.1476 42.0875,19.7136 C43.2185,14.4406 43.0415,10.9136 41.5465,8.9316 C39.7545,6.5536 36.0225,6.2986 31.7005,6.0036 L30.2835,5.9046 C29.9515,5.8806 29.7025,5.5916 29.7265,5.2606 C29.7515,4.9286 30.0605,4.6826 30.3715,4.7036 L31.7815,4.8036 C36.3985,5.1176 40.3845,5.3896 42.5085,8.2066 C44.2495,10.5166 44.4895,14.2536 43.2655,19.9656 C41.3265,29.0136 38.0565,31.2446 31.5225,31.2446" id="Fill-9" fill="#000"/><path d="M28.4629,9.2476 C27.5509,9.2476 26.8129,9.9866 26.8129,10.8986 C26.8129,11.8106 27.5509,12.5506 28.4629,12.5506 C29.3749,12.5506 30.1139,11.8106 30.1139,10.8986 C30.1139,9.9866 29.3749,9.2476 28.4629,9.2476 M8.4889,26.4826 C7.5769,26.4826 6.8379,27.2226 6.8379,28.1346 C6.8379,29.0456 7.5769,29.7846 8.4889,29.7846 C9.4009,29.7846 10.1399,29.0456 10.1399,28.1346 C10.1399,27.2226 9.4009,26.4826 8.4889,26.4826 M20.2469,4.2956 C20.2469,3.3836 19.5079,2.6436 18.5969,2.6436 C17.6849,2.6436 16.9449,3.3836 16.9449,4.2956 C16.9449,5.2066 17.6849,5.9456 18.5969,5.9456 C19.5079,5.9456 20.2469,5.2066 20.2469,4.2956 M22.5429,20.9346 C21.6309,20.9346 20.8919,21.6736 20.8919,22.5846 C20.8919,23.4966 21.6309,24.2356 22.5429,24.2356 C23.4539,24.2356 24.1929,23.4966 24.1929,22.5846 C24.1929,21.6736 23.4539,20.9346 22.5429,20.9346 M20.2469,32.5626 C19.3359,32.5626 18.5969,33.3026 18.5969,34.2146 C18.5969,35.1266 19.3359,35.8656 20.2469,35.8656 C21.1589,35.8656 21.8989,35.1266 21.8989,34.2146 C21.8989,33.3026 21.1589,32.5626 20.2469,32.5626 M13.8049,12.3046 C12.8929,12.3046 12.1529,13.0436 12.1529,13.9556 C12.1529,14.8676 12.8929,15.6056 13.8049,15.6056 C14.7159,15.6056 15.4549,14.8676 15.4549,13.9556 C15.4549,13.0436 14.7159,12.3046 13.8049,12.3046 M5.1869,4.2956 C4.2759,4.2956 3.5359,5.0336 3.5359,5.9456 C3.5359,6.8576 4.2759,7.5976 5.1869,7.5976 C6.0989,7.5976 6.8379,6.8576 6.8379,5.9456 C6.8379,5.0336 6.0989,4.2956 5.1869,4.2956" id="Dots" fill="#F1EFEF"/></g></g></g><g id="Pet" transform="translate(151.254800, 401.770000) scale(1 1)"><g id="Pet/Dog" stroke="none" stroke-width="1" fill="none" fill-rule="evenodd"><g id="Dog" transform="translate(45.000000, 81.000000)"><path d="M121.725239,42.456 C121.725239,42.456 120.953239,33.704 98.9662389,40.288 C104.863239,36.967 109.027239,30.932 109.720239,23.862 C109.797239,23.403 109.826239,23.135 109.826239,23.135 C109.826239,23.135 109.800239,23.12 109.759239,23.098 C109.787239,22.653 109.826239,22.213 109.826239,21.762 C109.826239,10.016 100.304239,0.493 88.5582389,0.493 C88.5582389,0.493 88.5472389,0.493 88.5402389,0.494 C87.1892389,0.495 85.8712389,0.635 84.5902389,0.877 C78.8512389,1.586 67.6192389,3.542 55.8352389,8.694 C50.5702389,5.859 43.8832389,4.21 36.6982389,4.439 C21.3832389,4.931 4.69623888,30.199 0.732238878,36.56 C0.242238878,37.348 0.555238878,38.411 1.41523888,38.76 C12.6192389,43.3 31.8372389,27.91 31.6202389,28.156 C30.7032389,29.197 29.8112389,30.275 28.9552389,31.401 C14.7012389,50.152 47.0732389,47.348 47.7172389,43.09 C48.9442389,43.068 58.2462389,42.552 60.3602389,42.31 C60.2052389,42.718 60.1112389,43.138 60.1112389,43.573 C60.1112389,49.533 88.5582389,43.03 88.5582389,43.03 C90.2232389,43.03 91.8352389,42.818 93.3902389,42.456 L121.725239,42.456 Z" id="Dog-hair" fill="#DE915E"/><path d="M121.729639,41.956 L94.3226389,41.725 L88.4466389,42.543 C88.2446389,42.589 88.0326389,42.637 87.8106389,42.686 C85.8096389,43.13 82.9986389,43.693 79.9346389,44.205 C79.2536389,44.318 78.5606389,44.43 77.8616389,44.536 C74.0136389,45.124 69.9756389,45.577 66.7656389,45.584 C64.1396389,45.59 62.0676389,45.297 61.1096389,44.533 C60.7696389,44.262 60.6106389,43.957 60.6106389,43.573 C60.6106389,43.227 60.6816389,42.871 60.8276389,42.487 C60.8306389,42.481 60.8276389,42.475 60.8296389,42.469 C62.4326389,38.29 72.7186389,35.417 76.7946389,34.279 C77.5646389,34.064 78.1666389,33.896 78.5306389,33.775 C78.5836389,33.758 78.6286389,33.726 78.6726389,33.691 C78.7046389,33.729 78.7306389,33.769 78.7626389,33.808 C80.0476389,35.305 81.9126389,36.11 84.3066389,36.202 L84.3266389,36.202 C84.5936389,36.202 84.8146389,35.99 84.8256389,35.721 C84.8356389,35.445 84.6206389,35.213 84.3446389,35.202 C82.2436389,35.123 80.6216389,34.435 79.5256389,33.161 C77.5056389,30.811 77.8886389,27.193 77.8926389,27.157 C77.8986389,27.104 77.8896389,27.056 77.8796389,27.007 C78.1836389,24.345 79.5876389,21.341 83.6796389,19.159 C83.9236389,19.029 84.0156389,18.727 83.8856389,18.482 C83.7546389,18.239 83.4536389,18.146 83.2086389,18.276 C78.7436389,20.658 77.2386389,24.006 76.9266389,26.957 C76.9176389,26.985 76.9026389,27.012 76.8996389,27.043 C76.8936389,27.097 76.8466389,27.54 76.8616389,28.202 C76.8586389,30.338 77.3976389,32.132 77.7086389,32.982 C77.3866389,33.076 76.9876389,33.187 76.5256389,33.316 C72.0166389,34.574 62.1246389,37.339 60.0176389,41.842 C57.7976389,42.062 50.9286389,42.454 48.4696389,42.561 C48.7316389,41.71 48.6576389,40.911 48.2276389,40.183 C47.5596389,39.049 46.0626389,38.227 44.2746389,37.627 C44.2806389,37.556 44.3056389,37.464 44.3816389,37.355 C44.8566389,36.675 47.2386389,35.168 59.0756389,35.941 C59.3446389,35.969 59.5886389,35.75 59.6066389,35.475 C59.6246389,35.199 59.4156389,34.961 59.1396389,34.943 C49.9546389,34.349 44.6976389,34.988 43.5176389,36.851 C43.4106389,37.019 43.3486389,37.181 43.3126389,37.331 C39.1696389,36.175 34.0546389,36.046 33.7296389,36.039 C33.4286389,36.028 33.2246389,36.253 33.2186389,36.528 C33.2126389,36.805 33.4326389,37.033 33.7086389,37.039 C36.9496389,37.108 45.7226389,37.901 47.3656389,40.69 C47.7386389,41.323 47.7086389,42.031 47.2746389,42.857 C47.2686389,42.868 47.2696389,42.881 47.2646389,42.892 C47.2476389,42.931 47.2296389,42.971 47.2226389,43.015 C47.1336389,43.603 45.6856389,44.521 42.7156389,45.144 C37.4956389,46.242 29.0226389,46.014 26.5346389,42.08 C25.0076389,39.665 25.9566389,36.174 29.3546389,31.704 C29.9276389,30.95 30.5416389,30.2 31.1816389,29.443 C31.7906389,28.782 34.3546389,25.937 35.4686389,23.8 C35.5966389,23.555 35.5016389,23.253 35.2566389,23.125 C35.0116389,22.998 34.7086389,23.092 34.5826389,23.337 C33.8386389,24.765 32.3476389,26.595 31.3406389,27.759 C31.2456389,27.813 31.1506389,27.878 31.0566389,27.947 C26.8786389,31.065 13.3906389,40.415 3.95663888,38.929 C8.36763888,35.223 3.43763888,32.408 3.43663888,32.407 C3.43263888,32.413 3.42963888,32.418 3.42563888,32.424 C3.42263888,32.422 3.42163888,32.419 3.41863888,32.417 C3.18763888,32.268 2.87763888,32.333 2.72763888,32.564 L0.308638878,36.296 C-0.0103611222,36.808 -0.0863611222,37.431 0.100638878,38.005 C0.281638878,38.562 0.692638878,39.006 1.22763888,39.224 C9.52263888,42.582 21.7716389,35.624 28.7826389,30.806 C28.7076389,30.903 28.6326389,31.001 28.5586389,31.099 C24.8806389,35.935 23.9166389,39.81 25.6886389,42.614 C27.6416389,45.702 32.4596389,46.71 36.9636389,46.71 C39.1436389,46.71 41.2496389,46.474 42.9216389,46.123 C44.6276389,45.766 47.4216389,44.978 48.0836389,43.579 C49.9776389,43.507 56.8926389,43.12 59.6776389,42.878 C59.6756389,42.891 59.6766389,42.903 59.6746389,42.915 C59.6366389,43.132 59.6106389,43.35 59.6106389,43.573 C59.6106389,44.266 59.9056389,44.852 60.4866389,45.315 C60.6286389,45.429 60.7886389,45.532 60.9656389,45.628 C61.0296389,45.663 61.1066389,45.69 61.1746389,45.724 C61.2956389,45.78 61.4126389,45.84 61.5466389,45.891 C61.6366389,45.925 61.7396389,45.953 61.8356389,45.984 C61.9626389,46.026 62.0846389,46.069 62.2216389,46.106 C62.3326389,46.136 62.4556389,46.16 62.5716389,46.186 C62.7076389,46.218 62.8386389,46.251 62.9826389,46.277 C63.1096389,46.302 63.2466389,46.319 63.3796389,46.34 C63.5266389,46.363 63.6706389,46.388 63.8246389,46.407 C63.9646389,46.425 64.1136389,46.436 64.2596389,46.451 C64.4176389,46.468 64.5726389,46.485 64.7366389,46.497 C64.8906389,46.509 65.0526389,46.516 65.2116389,46.524 C65.3776389,46.534 65.5416389,46.544 65.7126389,46.551 C65.8806389,46.557 66.0556389,46.559 66.2286389,46.561 C66.3996389,46.564 66.5676389,46.569 66.7426389,46.569 C66.7776389,46.569 66.8116389,46.571 66.8476389,46.571 C67.1236389,46.571 67.4056389,46.567 67.6906389,46.561 C67.7186389,46.56 67.7476389,46.56 67.7756389,46.56 C68.0806389,46.552 68.3906389,46.541 68.7046389,46.527 C68.7876389,46.523 68.8716389,46.519 68.9556389,46.516 C69.2396389,46.502 69.5256389,46.485 69.8156389,46.468 C69.8806389,46.463 69.9446389,46.46 70.0106389,46.455 C70.3706389,46.432 70.7336389,46.404 71.1016389,46.374 C71.1216389,46.372 71.1426389,46.37 71.1636389,46.368 C71.5076389,46.339 71.8536389,46.308 72.2016389,46.272 C72.2716389,46.267 72.3416389,46.259 72.4126389,46.252 C72.7466389,46.219 73.0826389,46.183 73.4186389,46.145 C73.4536389,46.142 73.4886389,46.138 73.5236389,46.134 C73.9126389,46.09 74.3006389,46.043 74.6896389,45.995 C74.6936389,45.994 74.6976389,45.993 74.7006389,45.993 C75.0736389,45.946 75.4456389,45.897 75.8156389,45.847 C75.8666389,45.841 75.9166389,45.833 75.9676389,45.826 C77.1286389,45.667 78.2726389,45.493 79.3736389,45.313 C79.3816389,45.312 79.3906389,45.31 79.3996389,45.31 C84.2326389,44.519 88.1756389,43.63 88.6476389,43.522 L94.3876389,42.72 L121.720639,42.956 L121.725639,42.956 C121.999639,42.956 122.222639,42.735 122.225652,42.46 C122.227639,42.185 122.005639,41.958 121.729639,41.956 M23.5786389,18.934 C23.8606389,19.028 24.4686389,19.144 25.2176389,19.144 C26.7256389,19.144 28.8066389,18.673 29.9566389,16.603 C30.0906389,16.361 30.0036389,16.058 29.7616389,15.923 C29.5216389,15.791 29.2166389,15.877 29.0826389,16.117 C27.6466389,18.702 24.4976389,18.122 23.9636389,18.002 C23.8776389,17.941 23.7696389,17.908 23.6586389,17.913 C23.4176389,17.924 23.1976389,18.111 23.1636389,18.35 C23.1296389,18.589 23.3506389,18.857 23.5786389,18.934 M66.9556389,26.231 C68.7926389,14.488 54.2216389,3.878 36.6976389,4.439 L36.3606389,11.853 C34.2266389,32.858 65.1166389,37.975 66.9556389,26.231 M88.5576389,0.993 C100.009639,0.993 109.326639,10.31 109.326639,21.762 C109.326639,22.098 109.303639,22.428 109.280639,22.758 L109.259639,23.066 C109.255639,23.134 109.272639,23.204 109.305639,23.271 C109.288639,23.391 109.263639,23.562 109.227639,23.779 C109.181639,24.052 109.365639,24.31 109.637639,24.355 C109.665639,24.36 109.693639,24.362 109.720639,24.362 C109.960639,24.362 110.172639,24.189 110.213639,23.945 C110.293639,23.468 110.323639,23.188 110.323639,23.188 C110.332639,23.108 110.310639,23.023 110.270639,22.944 L110.277639,22.827 C110.302639,22.474 110.326639,22.121 110.326639,21.762 C110.326639,9.762 100.568639,0 88.4776389,0 L88.4646389,0 C88.1916389,0.042 87.9756389,0.3 88.0176389,0.572 C88.0596389,0.846 88.2856389,1.038 88.5576389,0.993" id="Fill-17" fill="#000"/></g></g></g></g></svg>